<?xml version="1.0" standalone="no"?>
<!DOCTYPE svg PUBLIC "-//W3C//DTD SVG 1.1//EN" "http://www.w3.org/Graphics/SVG/1.1/DTD/svg11.dtd" >
<svg xmlns="http://www.w3.org/2000/svg">
<metadata></metadata>
<defs>
<font id="liberation_serifbold" horiz-adv-x="1024" >
<font-face units-per-em="2048" ascent="1638" descent="-410" />
<missing-glyph horiz-adv-x="512" />
<glyph horiz-adv-x="0" />
<glyph unicode="&#xd;" horiz-adv-x="512" />
<glyph unicode=" "  horiz-adv-x="512" />
<glyph unicode="&#x09;" horiz-adv-x="512" />
<glyph unicode="&#xa0;" horiz-adv-x="512" />
<glyph unicode="!" horiz-adv-x="682" d="M174 137q0 34 13 64.5t35.5 53t52.5 35.5t65 13q34 0 64.5 -13t53 -35.5t35.5 -53t13 -64.5q0 -35 -13 -65t-35.5 -52.5t-53 -35.5t-64.5 -13q-35 0 -65 13t-52.5 35.5t-35.5 52.5t-13 65zM190 1341h299l-92 -921h-115z" />
<glyph unicode="&#x22;" horiz-adv-x="1137" d="M227 1341h258l-78 -481h-104zM653 1341h258l-78 -481h-104z" />
<glyph unicode="#" d="M27 411v123h182l53 287h-235v123h258l73 397h144l-74 -397h270l74 397h143l-74 -397h156v-123h-178l-51 -287h229v-123h-256l-76 -411h-143l76 411h-270l-74 -411h-146l76 411h-157zM352 534h270l54 287h-271z" />
<glyph unicode="$" d="M73 51v320h93l36 -186q15 -20 44.5 -38.5t66.5 -33t77 -24.5t76 -11v488q-69 27 -136.5 58.5t-121 80t-86.5 122.5t-33 187q0 73 27 132.5t76.5 103t119 70.5t154.5 34v129h102v-127q81 -3 162.5 -15.5t143.5 -27.5v-279h-91l-32 143q-29 29 -79 51.5t-104 27.5v-415 q47 -19 94.5 -39t92 -44.5t83 -57t67 -76.5t45 -102.5t16.5 -134.5q0 -86 -27 -157t-78 -123t-125 -84t-168 -39v-140h-102v136q-56 1 -113.5 7.5t-110 16.5t-96.5 22t-73 25zM303 1067q0 -43 12.5 -72.5t34.5 -50.5t52 -36t64 -29v375q-79 -12 -121 -61.5t-42 -125.5z M568 77q89 16 136.5 79.5t47.5 173.5q0 45 -14.5 76.5t-39.5 54t-58.5 38t-71.5 29.5v-451z" />
<glyph unicode="%" horiz-adv-x="2048" d="M210 995q0 178 80.5 272.5t246.5 94.5q159 0 241.5 -92t82.5 -275q0 -179 -80.5 -275.5t-249.5 -96.5q-161 0 -241 95t-80 277zM425 995q0 -66 4.5 -117.5t16.5 -87.5t32.5 -55t52.5 -19t54 19t35.5 55t19 87.5t5.5 117.5q0 65 -5.5 116t-19 86t-35.5 53t-54 18 t-52.5 -18t-32.5 -53t-16.5 -86t-4.5 -116zM490 -20l948 1382h151l-949 -1382h-150zM1205 346q0 178 81 272.5t247 94.5q159 0 241 -92t82 -275q0 -180 -80 -276.5t-249 -96.5q-161 0 -241.5 95t-80.5 278zM1421 346q0 -66 4.5 -117.5t16.5 -87.5t32.5 -55t52.5 -19t54 19 t35.5 55t19 87.5t5.5 117.5q0 65 -5.5 116t-19 86t-35.5 53t-54 18t-52.5 -18t-32.5 -53t-16.5 -86t-4.5 -116z" />
<glyph unicode="&#x26;" horiz-adv-x="1706" d="M118 356q0 90 28.5 154t73.5 109.5t100.5 75t109.5 50.5q-27 31 -50 66t-40 74.5t-26.5 84.5t-9.5 97q0 58 20 111.5t65 94.5t116.5 65t175.5 24q101 0 170 -23t112 -62.5t61.5 -92t18.5 -111.5q0 -70 -24 -120t-64 -87t-92.5 -63.5t-110.5 -49.5l380 -343 q31 79 43.5 159t15.5 148l-111 26v64h477v-64l-110 -26q-12 -40 -27 -91t-35.5 -107.5t-48.5 -116t-66 -116.5l220 -198l116 -25v-63h-384l-119 110q-80 -59 -189 -94.5t-254 -35.5q-142 0 -244.5 24.5t-168.5 72.5t-97.5 118t-31.5 161zM394 367q0 -143 71 -212t195 -69 q114 0 197 33t142 87l-477 444q-25 -17 -48 -40t-41 -56.5t-28.5 -79t-10.5 -107.5zM554 1089q0 -42 8 -76t22 -63.5t34 -55t43 -50.5q30 16 54.5 35t42 47t26.5 67t9 96q0 173 -112 173q-68 0 -97.5 -43.5t-29.5 -129.5z" />
<glyph unicode="'" horiz-adv-x="569" d="M156 1341h258l-78 -481h-104z" />
<glyph unicode="(" horiz-adv-x="682" d="M90 495q0 188 32 329.5t97.5 250.5t164 192t232.5 154v-114q-83 -63 -132.5 -152t-76.5 -195.5t-35.5 -225t-8.5 -240.5t8.5 -241.5t35.5 -226t76.5 -196t132.5 -152.5v-114q-134 71 -232.5 154.5t-164 193t-97.5 252t-32 331.5z" />
<glyph unicode=")" horiz-adv-x="682" d="M66 -322q82 63 132 152.5t77 196t35.5 226t8.5 241.5t-8.5 240.5t-35.5 225t-77 195.5t-132 152v114q133 -71 232 -154t164.5 -192t97.5 -250.5t32 -329.5q0 -189 -32 -331.5t-97.5 -252t-164.5 -193t-232 -154.5v114z" />
<glyph unicode="*" d="M85 876l307 88l-307 90l94 213l287 -233l-70 317h233l-73 -317l288 227l95 -209l-312 -88l312 -86l-95 -211l-288 228l73 -316h-233l70 320l-287 -236z" />
<glyph unicode="+" horiz-adv-x="1167" d="M108 608v143h404v406h143v-406h405v-143h-405v-405h-143v405h-404z" />
<glyph unicode="," horiz-adv-x="512" d="M27 -225q57 17 95.5 41.5t62 51t34 52.5t10.5 45q0 20 -11 33.5t-28 24t-36.5 21t-36.5 26.5t-28 39t-11 59q0 65 45 99t114 34q38 0 73.5 -12.5t63 -37.5t44 -61t16.5 -84q0 -71 -22.5 -134.5t-71.5 -118t-126.5 -98t-186.5 -72.5v92z" />
<glyph unicode="-" horiz-adv-x="682" d="M75 395v174h532v-174h-532z" />
<glyph unicode="." horiz-adv-x="512" d="M90 137q0 34 13 64.5t35.5 53t52.5 35.5t65 13q34 0 64.5 -13t53 -35.5t35.5 -53t13 -64.5q0 -35 -13 -65t-35.5 -52.5t-53 -35.5t-64.5 -13q-35 0 -65 13t-52.5 35.5t-35.5 52.5t-13 65z" />
<glyph unicode="/" horiz-adv-x="569" d="M-20 -20l470 1369h140l-469 -1369h-141z" />
<glyph unicode="0" d="M78 676q0 333 108 509.5t328 176.5q212 0 322 -174.5t110 -511.5q0 -168 -26.5 -298t-80.5 -218.5t-137 -134t-196 -45.5q-212 0 -320 178t-108 518zM371 676q0 -140 6 -250.5t21 -187t41.5 -117.5t68.5 -41t69.5 41t44.5 117.5t24 187t7 250.5q0 139 -7 248t-24 184 t-44.5 114t-69.5 39t-68.5 -39t-41.5 -114t-21 -184t-6 -248z" />
<glyph unicode="1" d="M164 0v86l232 24v1011l-231 -76v85l378 222h142v-1242l233 -24v-86h-754z" />
<glyph unicode="2" d="M86 0v189q86 92 159 164.5t132.5 135t105.5 119t76.5 117t46.5 129.5t16 157q0 61 -16 106.5t-42.5 76t-61.5 45.5t-74 15q-62 0 -99 -13t-68 -39l-43 -194h-87v305q80 18 156.5 30.5t166.5 12.5q221 0 338.5 -91t117.5 -259q0 -80 -19 -144.5t-55.5 -121.5t-90.5 -111 t-124.5 -114t-156.5 -130t-186 -159h658v-226h-850z" />
<glyph unicode="3" d="M77 345h92l52 -215q32 -18 79.5 -33.5t102.5 -15.5q66 0 114 22t80 61t47.5 93t15.5 118q0 72 -18 120.5t-49 78t-73.5 43t-90.5 16.5l-116 7v121l112 8q89 6 131.5 65.5t42.5 179.5q0 61 -14.5 106t-40 75t-61.5 44.5t-78 14.5q-54 0 -88.5 -16.5t-65.5 -35.5l-43 -194 h-87v305q36 9 72 17t75 13.5t82 9t93 3.5q221 0 336 -81t115 -249q0 -63 -16.5 -117.5t-50.5 -96.5t-86.5 -70.5t-124.5 -39.5q172 -21 255 -105t83 -232q0 -91 -33 -162.5t-96.5 -121t-155.5 -75.5t-210 -26q-102 0 -197 11.5t-173 28.5z" />
<glyph unicode="4" d="M28 265v163l604 920h220v-878h134v-205h-134v-265h-269v265h-555zM194 470h389v397q0 26 1 55t2.5 57.5t3 54t3.5 45.5z" />
<glyph unicode="5" d="M82 345h92l52 -215q16 -9 39 -18t49.5 -15.5t55 -11t55.5 -4.5q63 0 106.5 22.5t71 63t40 97t12.5 125.5q0 75 -13 132t-42 95t-75.5 57t-114.5 19q-30 0 -53.5 -3.5t-42 -9.5t-34.5 -13t-31 -13h-100v688h700v-223h-589v-352q18 4 39 8.5t47.5 8.5t59.5 7t74 3 q115 0 202.5 -23t146.5 -71t89.5 -122.5t30.5 -177.5q0 -95 -29 -172t-89 -132t-151.5 -85t-215.5 -30q-102 0 -197 11.5t-173 28.5z" />
<glyph unicode="6" d="M70 662q0 182 42.5 313t113.5 216t163.5 125t192.5 40q78 0 157.5 -12t143.5 -31v-305h-87l-43 194q-32 24 -70.5 38t-80.5 14q-46 0 -86.5 -30t-71.5 -90t-51.5 -151.5t-26.5 -214.5q51 22 103.5 34.5t112.5 12.5q87 0 157.5 -24.5t120.5 -74t77 -124.5t27 -176 q0 -104 -27 -185t-80.5 -137t-131.5 -85t-180 -29q-112 0 -200.5 43t-149.5 128.5t-93 213t-32 297.5zM364 662q0 -140 10 -248t31.5 -182t55 -112.5t80.5 -38.5q73 0 101 79t28 237q0 85 -13 141.5t-34.5 90.5t-49.5 47.5t-58 13.5q-46 0 -80 -6t-71 -17v-5z" />
<glyph unicode="7" d="M117 958v383h857v-79l-521 -1262h-239l565 1118h-529l-46 -160h-87z" />
<glyph unicode="8" d="M68 362q0 66 16.5 121.5t47 99t73.5 76t97 52.5q-97 37 -150 114t-53 189q0 79 26.5 143.5t78.5 110t130 70t180 24.5q99 0 175.5 -24.5t129 -70.5t79.5 -110.5t27 -145.5q0 -110 -54 -187.5t-152 -112.5q53 -20 97 -52t75 -75.5t48 -99t17 -122.5q0 -190 -109.5 -286 t-340.5 -96q-219 0 -328.5 94.5t-109.5 287.5zM352 362q0 -68 7 -120.5t24.5 -88t47 -54t75.5 -18.5q47 0 78.5 18.5t51 54t28 88t8.5 120.5q0 71 -8.5 125.5t-28 92t-51 57t-78.5 19.5q-46 0 -75.5 -19.5t-47 -57t-24.5 -92t-7 -125.5zM383 1011q0 -58 5.5 -104t19.5 -78 t38 -49t62 -17q39 0 64.5 17t41 49t21.5 78t6 104q0 54 -6 100t-21.5 79.5t-41 52t-64.5 18.5q-38 0 -62 -18.5t-38 -52t-19.5 -79.5t-5.5 -100z" />
<glyph unicode="9" d="M56 932q0 103 30.5 182.5t88 133t139.5 81t184 27.5q116 0 201.5 -40t141 -123.5t82.5 -212.5t27 -306q0 -194 -43.5 -326.5t-117 -214t-170 -117.5t-201.5 -36q-92 0 -166 11t-145 32v305h87l43 -194q35 -25 83.5 -39t93.5 -14q47 0 88 25.5t72.5 82.5t52 147.5 t26.5 221.5q-48 -17 -99 -27t-108 -10q-87 0 -158.5 26.5t-123 78t-80 128.5t-28.5 178zM350 928q0 -78 11.5 -132.5t32 -88.5t49 -49.5t63.5 -15.5q76 0 150 18v14q0 289 -34.5 435t-121.5 146q-78 0 -114 -84t-36 -243z" />
<glyph unicode=":" horiz-adv-x="682" d="M168 137q0 34 12.5 64.5t34.5 53t52.5 35.5t65.5 13t65 -13t52.5 -35.5t35.5 -53t13 -64.5q0 -35 -13 -65t-35.5 -52.5t-52.5 -35.5t-65 -13t-65.5 13t-52.5 35.5t-34.5 52.5t-12.5 65zM168 794q0 35 12.5 65.5t34.5 53t52.5 35t65.5 12.5t65 -12.5t52.5 -35t35.5 -53 t13 -65.5t-13 -65t-35.5 -52.5t-52.5 -35.5t-65 -13t-65.5 13t-52.5 35.5t-34.5 52.5t-12.5 65z" />
<glyph unicode=";" horiz-adv-x="682" d="M106 -225q57 17 96 41.5t62.5 51t34 52.5t10.5 45q0 20 -11.5 33.5t-28.5 24t-37 21t-37 26.5t-28.5 39t-11.5 59q0 32 12.5 57t34 42t51 25.5t64.5 8.5q37 0 72 -12.5t63 -37.5t45 -61t17 -84q0 -71 -22.5 -134.5t-71.5 -118t-126.5 -98t-187.5 -72.5v92zM170 794 q0 35 12.5 65.5t34.5 53t52.5 35t65.5 12.5t65 -12.5t52.5 -35t35.5 -53t13 -65.5t-13 -65t-35.5 -52.5t-52.5 -35.5t-65 -13t-65.5 13t-52.5 35.5t-34.5 52.5t-12.5 65z" />
<glyph unicode="&#x3c;" horiz-adv-x="1167" d="M102 635v90l952 468v-143l-767 -370l767 -371v-143z" />
<glyph unicode="=" horiz-adv-x="1167" d="M102 403v144h952v-144h-952zM102 813v143h952v-143h-952z" />
<glyph unicode="&#x3e;" horiz-adv-x="1167" d="M104 166v143l768 371l-768 370v143l952 -468v-90z" />
<glyph unicode="?" d="M124 1018v295q77 20 154.5 31.5t169.5 11.5q225 0 339.5 -88.5t114.5 -266.5q0 -67 -18 -128t-55 -111t-93 -87.5t-131 -58.5l-87 -24l-27 -202h-103l-57 313l95 25q38 10 72 26.5t59.5 46.5t40.5 76.5t15 116.5t-12 119.5t-37.5 81t-64.5 45.5t-94 14q-48 0 -84.5 -12 t-64.5 -30l-43 -194h-89zM280 137q0 34 12.5 64.5t34.5 53t52.5 35.5t65.5 13t65 -13t52.5 -35.5t35.5 -53t13 -64.5q0 -35 -13 -65t-35.5 -52.5t-52.5 -35.5t-65 -13t-65.5 13t-52.5 35.5t-34.5 52.5t-12.5 65z" />
<glyph unicode="@" horiz-adv-x="1905" d="M107 362q0 143 33 273t94.5 241t148.5 201.5t195.5 154t235.5 98t269 34.5q178 0 312 -43.5t223.5 -123.5t134.5 -193t45 -252q0 -103 -28.5 -197t-78 -174.5t-117.5 -146.5t-147 -112.5t-166.5 -71.5t-175.5 -25q-65 0 -95.5 34t-32.5 91q-25 -21 -52.5 -43.5 t-60.5 -40.5t-71.5 -29.5t-86.5 -11.5q-43 0 -77.5 18t-58.5 51.5t-37 81t-13 107.5q0 70 16.5 143t49.5 141.5t82.5 129.5t115.5 108q51 37 99.5 60t99 36t105 18t116.5 5q48 0 98 -3.5t85 -7.5l-121 -541q-5 -20 -9 -42t-7 -43.5t-5 -40.5t-2 -31q0 -23 8.5 -39.5 t41.5 -16.5q53 0 99 24.5t84 67t67.5 99.5t49.5 123t30.5 137t10.5 141q0 124 -37.5 219.5t-107.5 160.5t-168.5 98.5t-221.5 33.5t-229 -32.5t-194 -92t-155.5 -142t-114.5 -182.5t-71 -214.5t-24 -236.5q0 -128 36.5 -245t111.5 -206.5t188.5 -142.5t267.5 -53 q91 0 168.5 14t143.5 38t122.5 56t106.5 67l44 -64q-56 -45 -119 -84t-138 -68.5t-164 -46.5t-195 -17q-184 0 -325.5 58.5t-237.5 160.5t-145 239t-49 293zM740 316q0 -72 21.5 -109.5t49.5 -37.5q20 0 42 6.5t43 16.5t39 22t30 23l120 561q-7 2 -26.5 3.5t-34.5 1.5 q-49 0 -92.5 -13.5t-79.5 -56.5q-20 -24 -40 -67t-36 -98.5t-26 -120t-10 -131.5z" />
<glyph unicode="A" horiz-adv-x="1479" d="M20 0v73l100 27l477 1252h290l475 -1252l102 -27v-73h-597v73l155 27l-128 347h-515l-123 -347l172 -27v-73h-408zM420 557h436l-215 593z" />
<glyph unicode="B" horiz-adv-x="1366" d="M34 0v73l173 27v1142l-173 26v73h651q149 0 249 -21t160.5 -60t86 -95t25.5 -127q0 -67 -22.5 -121t-60.5 -94.5t-88 -67t-105 -38.5q99 -10 170.5 -37t118 -69t68.5 -97.5t22 -122.5q0 -87 -31 -160t-98.5 -125.5t-173 -82t-254.5 -29.5q-120 0 -238 3t-218 3h-262z M522 110q48 -2 92 -3q37 -2 75 -2.5t60 -0.5q63 0 107 20t71 57t39.5 90t12.5 120q0 133 -66.5 198t-217.5 65h-173v-544zM522 764h147q61 0 101.5 17t64.5 48.5t33.5 77t9.5 103.5q0 57 -11.5 98.5t-37.5 69t-67.5 40.5t-100.5 13h-139v-467z" />
<glyph unicode="C" horiz-adv-x="1479" d="M100 655q0 180 48.5 312t140 218.5t224 128.5t301.5 42q143 0 264.5 -20.5t218.5 -46.5l6 -322h-90l-28 194q-63 43 -142 66.5t-165 23.5q-105 0 -188 -30.5t-140.5 -100.5t-87.5 -183t-30 -279q0 -146 30 -254t86 -179t137.5 -106.5t184.5 -35.5q113 0 197.5 30 t132.5 71l32 220h91l-6 -340q-43 -17 -101.5 -32t-125 -26.5t-137.5 -18.5t-138 -7q-169 0 -301.5 46t-224.5 133t-140.5 212.5t-48.5 283.5z" />
<glyph unicode="D" horiz-adv-x="1479" d="M36 0v73l172 27v1142l-172 26v73h637q162 0 292.5 -34.5t222.5 -112.5t141.5 -204.5t49.5 -311.5q0 -164 -38 -291t-119 -214t-206.5 -132t-300.5 -45q-57 0 -120 0.5t-123 1.5t-113.5 1.5t-92.5 0.5h-230zM522 114q24 -2 43.5 -3t39 -2.5t41 -2t50.5 -0.5 q100 0 167 32.5t108 101.5t58.5 175.5t17.5 254.5q0 157 -29.5 264.5t-86.5 173.5t-141 94.5t-194 28.5h-74v-1117z" />
<glyph unicode="E" horiz-adv-x="1366" d="M35 0v73l172 27v1142l-172 26v73h1142v-341h-91l-32 217q-32 4 -77.5 7t-92.5 4.5t-89 2t-65 0.5h-208v-492h351l31 148h89v-412h-89l-31 152h-351v-517h253q62 0 117 1.5t99 3.5t75.5 5t46.5 6l57 248h91l-19 -374h-1207z" />
<glyph unicode="F" horiz-adv-x="1251" d="M35 1268v73h1118v-361h-94l-32 237q-21 3 -53.5 5t-70 4t-77 2.5t-75 1.5t-64.5 1h-44h-121v-549h327l31 170h89v-452h-89l-31 172h-327v-472l223 -27v-73h-697v73l159 27v1142z" />
<glyph unicode="G" horiz-adv-x="1593" d="M100 655q0 176 52 307.5t148.5 219t234 131t307.5 43.5q87 0 158.5 -7t133.5 -19t117 -27.5t111 -31.5v-308h-90l-24 174q-35 24 -77 45t-89.5 36.5t-99 24t-104.5 8.5q-102 0 -184 -28.5t-140.5 -97t-90 -183t-31.5 -285.5q0 -116 18 -203t49 -151t73.5 -106.5t91 -67.5 t101.5 -35.5t105 -10.5q57 0 115 9.5t106 25.5v388l-172 26v74h618v-74l-131 -26v-436q-58 -19 -129.5 -35.5t-148.5 -28.5t-155 -19t-150 -7q-159 0 -292 43.5t-228.5 129t-149 211.5t-53.5 291z" />
<glyph unicode="H" horiz-adv-x="1593" d="M35 0v74l172 26v1141l-172 27v73h659v-73l-172 -27v-496h548v496l-172 27v73h661v-73l-173 -27v-1141l173 -26v-74h-661v74l172 26v535h-548v-535l172 -26v-74h-659z" />
<glyph unicode="I" horiz-adv-x="797" d="M69 0v74l172 26v1141l-172 27v73h659v-73l-172 -27v-1141l172 -26v-74h-659z" />
<glyph unicode="J" d="M91 10v304h89l30 -179q19 -23 54 -36t77 -13q69 0 114.5 48t45.5 142v966l-172 26v73h639v-73l-152 -26v-810q0 -91 -20 -160t-54 -119t-79 -83.5t-96.5 -53.5t-106 -28t-106.5 -8q-34 0 -70.5 2t-71.5 6t-66.5 9.5t-54.5 12.5z" />
<glyph unicode="K" horiz-adv-x="1593" d="M35 0v73l172 27v1142l-172 26v73h660v-73l-173 -26v-546l611 546l-123 26v73h459v-73l-164 -26l-443 -391l590 -751l125 -27v-73h-438l-501 646l-116 -100v-446l193 -27v-73h-680z" />
<glyph unicode="L" horiz-adv-x="1366" d="M35 0v73l172 27v1142l-171 26v73h693v-73l-207 -26v-1136h273q125 0 204 7t109 13l82 279h90l-38 -405h-1207z" />
<glyph unicode="M" horiz-adv-x="1933" d="M35 0v73l172 27v1142l-172 26v73h527l383 -882l391 882h538v-73l-172 -26v-1142l172 -27v-73h-667v73l180 27v1033l-505 -1133h-55l-495 1133v-1033l180 -27v-73h-477z" />
<glyph unicode="N" horiz-adv-x="1479" d="M39 0v73l172 27v1142l-172 26v73h459l657 -857v758l-180 26v73h477v-73l-172 -26v-1242h-117l-827 1078v-978l180 -27v-73h-477z" />
<glyph unicode="O" horiz-adv-x="1593" d="M100 672q0 178 46 307t135 213t218.5 124t297.5 40q162 0 291 -40t219 -124t138 -213t48 -307t-48 -308.5t-138 -215.5t-219 -126.5t-291 -41.5t-291 41.5t-219.5 126.5t-138.5 215.5t-48 308.5zM432 672q0 -140 17 -250t59 -186t112.5 -116t176.5 -40t176 40t112 116 t59 186t17 250q0 139 -17 248t-59 183t-112 113t-176 39t-176.5 -39t-112.5 -113t-59 -183t-17 -248z" />
<glyph unicode="P" horiz-adv-x="1251" d="M35 1268v73h591q168 0 277.5 -30.5t174 -84t90 -125.5t25.5 -155q0 -82 -21.5 -158t-77 -134t-150.5 -93t-241 -35h-180v-426l223 -27v-73h-698v73l159 27v1142zM523 636h83q76 0 126.5 19.5t81.5 58t44 96t13 134.5q0 80 -14 135t-45.5 88.5t-83 48.5t-126.5 15h-79 v-595z" />
<glyph unicode="Q" horiz-adv-x="1593" d="M100 672q0 178 46 307t135 213t218.5 124t297.5 40q162 0 291 -40t219 -124t138 -213t48 -307q0 -128 -25 -231.5t-73 -183t-117.5 -135.5t-158.5 -90l50 -61q43 -54 80 -89.5t68 -56.5t56.5 -29.5t47.5 -8.5q52 0 82 8v-86q-11 -5 -36.5 -11.5t-58.5 -13.5t-70 -11.5 t-71 -4.5q-81 0 -141 16.5t-110 49.5t-95.5 82.5t-97.5 115.5l-38 48q-159 1 -286 43.5t-215.5 127.5t-136 214.5t-47.5 306.5zM432 672q0 -140 17 -250t59 -186t112.5 -116t176.5 -40t176 40t112 116t59 186t17 250q0 139 -17 248t-59 183t-112 113t-176 39t-176.5 -39 t-112.5 -113t-59 -183t-17 -248z" />
<glyph unicode="R" horiz-adv-x="1479" d="M35 1268v73h641q168 0 281 -27.5t181 -77t97 -118.5t29 -152q0 -63 -14 -120t-45.5 -105t-83 -85t-127.5 -60l358 -496l145 -27v-73h-434l-374 568h-166v-468l172 -27v-73h-647v73l159 27v1142zM523 678h145q79 0 133.5 16t88 50.5t48 88.5t14.5 131q0 80 -16 131.5 t-51 81.5t-90 42t-132 12h-140v-553z" />
<glyph unicode="S" horiz-adv-x="1139" d="M109 51v360h88l45 -215q21 -24 53 -44.5t72 -36.5t85.5 -25t92.5 -9q78 0 133 17.5t89 48.5t49.5 74.5t15.5 95.5q0 60 -30.5 99t-81 67t-114.5 49.5t-131.5 45.5t-131.5 55t-114.5 78.5t-81 115.5t-30.5 167q0 177 120.5 269.5t352.5 92.5q49 0 99.5 -3.5t98.5 -9.5 t92 -14t82 -16v-319h-89l-45 184q-44 32 -101 53t-137 21q-68 0 -116.5 -13.5t-79.5 -37.5t-45 -58t-14 -76q0 -54 31 -90t81 -62t114.5 -47t132 -45.5t132 -56t114.5 -79t81 -115.5t31 -165q0 -98 -28 -177t-89 -134.5t-156 -85.5t-230 -30q-65 0 -129 6t-121.5 16 t-106.5 23t-83 26z" />
<glyph unicode="T" horiz-adv-x="1366" d="M32 966v375h1303v-375h-92l-27 249q-37 8 -123.5 13t-204.5 5h-49v-1133l213 -27v-73h-742v73l213 27v1135h-51q-131 0 -208 -6t-114 -14l-27 -249h-91z" />
<glyph unicode="U" horiz-adv-x="1479" d="M51 1268v73h639v-73l-172 -26v-787q0 -76 19 -137.5t58 -105t99.5 -67t143.5 -23.5q82 0 141.5 24.5t98 68t56.5 104.5t18 134v789l-180 26v73h456v-73l-152 -26v-781q0 -89 -24.5 -175t-83.5 -154t-159 -109.5t-250 -41.5q-140 0 -244 33.5t-173.5 96.5t-104 153.5 t-34.5 204.5v773z" />
<glyph unicode="V" horiz-adv-x="1479" d="M23 1268v73h583v-73l-139 -27l377 -879l352 879l-135 27v73h395v-73l-127 -27l-518 -1272h-133l-545 1272z" />
<glyph unicode="W" horiz-adv-x="2048" d="M29 1268v73h602v-73l-157 -26l286 -799l314 784h125l315 -782l237 797l-169 26v73h434v-73l-117 -26l-398 -1273h-123l-334 827l-331 -827h-123l-444 1273z" />
<glyph unicode="X" horiz-adv-x="1479" d="M38 0v73l148 27l431 548l-384 594l-151 26v73h653v-73l-170 -26l234 -362l285 362l-166 26v73h459v-73l-148 -26l-365 -463l439 -679l152 -27v-73h-653v73l170 27l-290 447l-352 -447l166 -27v-73h-458z" />
<glyph unicode="Y" horiz-adv-x="1479" d="M36 1268v73h690v-73l-180 -26l306 -562l296 562l-164 26v73h456v-73l-142 -26l-387 -714v-428l213 -27v-73h-742v73l213 27v422l-408 720z" />
<glyph unicode="Z" horiz-adv-x="1366" d="M98 0v114l742 1121h-240q-131 0 -207 -6t-113 -14l-31 -211h-89v337h1036v-106l-747 -1131h280q65 0 126.5 3.5t112.5 9t89 11t56 9.5l59 256h90l-27 -393h-1137z" />
<glyph unicode="[" horiz-adv-x="682" d="M152 -274v1695h456v-67l-203 -41v-1479l203 -41v-67h-456z" />
<glyph unicode="\" horiz-adv-x="569" d="M-20 1349h140l470 -1369h-141z" />
<glyph unicode="]" horiz-adv-x="682" d="M74 -207l203 41v1479l-203 41v67h456v-1695h-456v67z" />
<glyph unicode="^" horiz-adv-x="1190" d="M122 389l428 952h90l428 -952h-143l-330 761l-330 -761h-143z" />
<glyph unicode="_" d="M-16 -141h1056v-144h-1056v144z" />
<glyph unicode="`" horiz-adv-x="682" d="M88 1386v37h285l165 -273v-32h-86z" />
<glyph unicode="a" d="M66 260q0 97 34 155t91.5 89.5t134 41.5t162.5 12l122 3v137q0 83 -34 126.5t-105 43.5q-55 0 -100.5 -15.5t-87.5 -36.5l-38 -117h-66v227q46 7 87.5 13t84.5 11t90.5 8t104.5 3q77 0 142 -13t112 -43.5t73 -80.5t26 -123v-611l94 -24v-66h-346l-22 72 q-19 -13 -44.5 -29t-58.5 -30t-74 -23.5t-91 -9.5q-82 0 -137.5 21t-89.5 58.5t-49 89t-15 111.5zM354 266q0 -85 30 -125t78 -40t82 10.5t66 24.5v336l-84 -3q-44 -2 -76 -12t-53.5 -33.5t-32 -61.5t-10.5 -96z" />
<glyph unicode="b" horiz-adv-x="1139" d="M26 1356v65h385v-345q0 -37 -2.5 -89t-7.5 -100q22 18 52.5 32t66 24.5t72.5 16t72 5.5q105 0 179 -28.5t121.5 -86.5t69.5 -146t22 -208q0 -114 -28.5 -208.5t-85.5 -163t-143.5 -106.5t-202.5 -38q-96 0 -218.5 19.5t-255.5 48.5v1285zM411 101q32 -8 74.5 -12t82.5 -4 q54 0 91 27t60.5 79.5t33.5 129.5t10 176q0 102 -13 170.5t-38 110t-61.5 59t-82.5 17.5q-38 0 -83 -8.5t-74 -25.5v-719z" />
<glyph unicode="c" horiz-adv-x="909" d="M70 472q0 129 37 222.5t100.5 153.5t147.5 88.5t177 28.5q86 0 162.5 -10.5t142.5 -24.5v-278h-72l-42 165q-16 12 -31.5 20.5t-33.5 14t-39.5 8t-49.5 2.5q-39 0 -76 -22.5t-66.5 -69t-47.5 -119.5t-18 -173q0 -84 11.5 -153t40.5 -118t80 -75.5t129 -26.5q65 0 128.5 8 t107.5 21v-77q-24 -19 -56.5 -33t-71 -23.5t-79.5 -14.5t-81 -5q-134 0 -229 33.5t-155 96.5t-88 154t-28 207z" />
<glyph unicode="d" horiz-adv-x="1139" d="M83 467q0 114 25 206t77.5 157t133 100t191.5 35q109 0 220 -27q-2 11 -3 31t-1.5 42.5t-1 44.5t-0.5 37v238l-96 24v66h385v-1331l103 -24v-66h-362l-21 53q-23 -15 -45.5 -28.5t-50 -23t-62 -15.5t-80.5 -6q-208 0 -310 119.5t-102 367.5zM376 475q0 -110 15 -183.5 t40.5 -118t58.5 -63.5t68 -19q51 0 89.5 12t76.5 31v708q-41 11 -77 16t-81 5q-90 0 -140 -98.5t-50 -289.5z" />
<glyph unicode="e" horiz-adv-x="909" d="M70 475q0 246 105.5 367t318.5 121q83 0 150 -20t114 -68.5t72.5 -129t25.5 -201.5v-82h-493v-16q0 -67 5.5 -128.5t30 -109t75 -75.5t139.5 -28q59 0 115 9t107 20v-77q-23 -14 -58 -28t-76.5 -24.5t-87.5 -17t-91 -6.5q-121 0 -207 32t-140.5 95t-79.5 155t-25 212z M364 567h218q0 67 -2.5 122t-12 93t-29.5 59t-55 21q-36 0 -59 -21t-36.5 -59t-18.5 -93t-5 -122z" />
<glyph unicode="f" horiz-adv-x="682" d="M15 836v69l142 39v101q0 99 26 173.5t74.5 124t119 74.5t159.5 25q22 0 45.5 -1.5t46 -4t41.5 -6t33 -7.5v-224h-64l-29 109q-9 9 -24.5 16.5t-38.5 7.5q-22 0 -40.5 -13.5t-31.5 -44t-20.5 -79t-7.5 -118.5v-137h191v-104h-191v-746l153 -24v-66h-544v66l102 24v746 h-142z" />
<glyph unicode="g" d="M54 -233q0 29 13.5 54t37.5 48t56.5 44.5t70.5 43.5q-18 7 -42.5 23.5t-46.5 42t-37.5 59.5t-15.5 75l167 190q-178 75 -178 293q0 80 28.5 140.5t82.5 101.5t132.5 62t177.5 21q32 0 65 -3t61.5 -6.5t50.5 -8t32 -7.5l225 111l35 -43l-114 -162q31 -38 46.5 -91 t15.5 -115q0 -81 -28 -142.5t-81.5 -103.5t-132 -63t-179.5 -21q-40 0 -81 3.5t-72 8.5l-24 -76q1 -15 11 -29t26 -25.5t38 -18.5t48 -7h219q165 0 254 -64t89 -200q0 -62 -24.5 -125t-84.5 -114t-160.5 -83t-252.5 -32q-114 0 -195 17.5t-132.5 47.5t-76 70t-24.5 84z M253 -216q0 -23 10 -46t36 -41t70.5 -29.5t113.5 -11.5q79 0 136 13.5t94 37.5t54.5 56.5t17.5 70.5q0 47 -33 71t-94 24h-317q-41 -30 -64.5 -67t-23.5 -78zM362 640q0 -115 31 -172.5t101 -57.5q74 0 107 57.5t33 172.5t-32.5 169.5t-107.5 54.5q-69 0 -100.5 -54.5 t-31.5 -169.5z" />
<glyph unicode="h" horiz-adv-x="1139" d="M51 1355v66h385v-407q0 -15 -0.5 -35.5t-1.5 -42.5t-2 -42.5t-2 -35.5q31 16 68.5 35t79.5 35t86.5 26.5t89.5 10.5q57 0 105 -15t82.5 -48t53.5 -86t19 -128v-598l94 -24v-66h-467v66l84 24v559q0 84 -35.5 131t-101.5 47q-76 0 -152 -34v-703l86 -24v-66h-467v66l92 24 v1241z" />
<glyph unicode="i" horiz-adv-x="569" d="M45 0v66l102 24v760l-96 24v66h385v-850l103 -24v-66h-494zM137 1268q0 32 12 60t33 48.5t49 32.5t60 12t60 -12t48.5 -32.5t32.5 -48.5t12 -60t-12 -60t-32.5 -49t-48.5 -33t-60 -12t-60 12t-49 33t-33 49t-12 60z" />
<glyph unicode="j" horiz-adv-x="682" d="M-17 -193h64l43 -114q10 -8 20 -13.5t29 -5.5q22 0 43 13.5t37.5 43.5t26.5 78.5t10 119.5v911l-166 34v66h455v-979q0 -106 -31 -181.5t-84 -123.5t-124 -70t-151 -22q-45 0 -90 5t-82 13v225zM246 1268q0 31 12 59t33 49t49 33t60 12q31 0 59 -12t49 -33t33 -49t12 -59 q0 -32 -12 -60t-33 -49t-49 -33t-59 -12q-32 0 -60 12t-49 33t-33 49t-12 60z" />
<glyph unicode="k" horiz-adv-x="1139" d="M51 1355v66h385v-970l367 400l-100 23v66h358v-66l-108 -22l-224 -236l323 -526l84 -24v-66h-452v66l55 24l-188 329l-115 -80v-249l93 -24v-66h-471v66l89 24v1241z" />
<glyph unicode="l" horiz-adv-x="569" d="M40 0v66l102 24v1241l-96 24v66h385v-1331l103 -24v-66h-494z" />
<glyph unicode="m" horiz-adv-x="1706" d="M55 0v66l92 24v760l-92 24v66h365l14 -82q31 16 68 35t78 35t84.5 26.5t88.5 10.5q78 0 136 -28.5t88 -93.5q32 19 73.5 40.5t87 39.5t93.5 30t92 12q57 0 104 -15t80.5 -48t51.5 -86t18 -128v-598l94 -24v-66h-467v66l84 24v559q0 84 -32.5 131t-98.5 47 q-36 0 -78.5 -11.5t-81.5 -30.5q5 -21 7.5 -45.5t2.5 -51.5v-598l94 -24v-66h-467v66l84 24v559q0 84 -32.5 131t-98.5 47q-37 0 -75.5 -11t-75.5 -28v-698l86 -24v-66h-467z" />
<glyph unicode="n" horiz-adv-x="1139" d="M55 0v66l92 24v760l-92 24v66h365l14 -82q31 16 68 35t78 35t85 26.5t89 10.5q57 0 105 -15t82.5 -48t53.5 -86t19 -128v-598l94 -24v-66h-467v66l84 24v559q0 84 -35.5 131t-101.5 47q-76 0 -152 -34v-703l86 -24v-66h-467z" />
<glyph unicode="o" d="M78 475q0 119 25 210.5t78 153.5t135.5 94t197.5 32q223 0 327.5 -124.5t104.5 -365.5q0 -120 -24.5 -212t-77.5 -155t-136.5 -95.5t-201.5 -32.5q-111 0 -192 32t-133.5 95t-77.5 155.5t-25 212.5zM371 475q0 -98 5 -171.5t19.5 -123.5t41.5 -75t71 -25q45 0 73 25 t44 75t22 123.5t6 171.5q0 97 -6 170t-22 122t-44 73t-73 24q-44 0 -71 -24t-41.5 -73t-19.5 -122t-5 -170z" />
<glyph unicode="p" horiz-adv-x="1139" d="M26 874v66h381l2 -48q22 15 48.5 28.5t58 23t69.5 15.5t84 6q196 0 291.5 -115t95.5 -363q0 -114 -25.5 -207.5t-78.5 -160t-134 -103t-192 -36.5q-54 0 -106 6.5t-108 20.5q1 -11 2.5 -30t2 -40.5t1 -42t0.5 -35.5v-205l138 -24v-66h-529v66l102 24v1196zM418 107 q81 -21 169 -21q90 0 133 99t43 295q0 109 -14 181.5t-38 115t-55.5 60t-66.5 17.5q-51 0 -94.5 -11t-76.5 -27v-709z" />
<glyph unicode="q" horiz-adv-x="1139" d="M84 474q0 114 26 204.5t80.5 154.5t138.5 98t200 34q30 0 67 -2.5t75 -6t74 -7.5l63 -7l119 43h91v-1331l102 -24v-66h-529v66l138 24v215q0 37 2.5 89t7.5 100q-44 -35 -106 -56.5t-139 -21.5q-209 0 -309.5 123.5t-100.5 370.5zM377 448q0 -102 14 -170.5t39.5 -110 t62.5 -59t84 -17.5q38 0 80.5 10.5t71.5 27.5v716q-32 8 -72 12.5t-80 4.5q-54 0 -92 -27.5t-62 -80t-35 -130t-11 -176.5z" />
<glyph unicode="r" horiz-adv-x="909" d="M55 0v66l122 24v760l-122 24v66h395l11 -195q26 29 64.5 68t84 74t97 59t104.5 24h54v-343h-56l-59 126q-33 0 -72 -8t-77 -21.5t-73.5 -30t-61.5 -32.5v-571l151 -24v-66h-562z" />
<glyph unicode="s" horiz-adv-x="797" d="M62 685q0 68 26.5 120t72.5 87.5t108 54t133 18.5q70 0 140.5 -9t136.5 -20v-241h-66l-32 110q-13 13 -33 25t-44.5 21t-51.5 14.5t-52 5.5q-72 0 -106.5 -29.5t-34.5 -80.5q0 -33 14.5 -56t43 -41t69 -33t93.5 -31q55 -17 104 -40.5t85.5 -59t57.5 -84.5t21 -118 q0 -74 -22.5 -133t-69 -100t-117.5 -63t-168 -22q-48 0 -97 6t-91 14.5t-73.5 17t-44.5 13.5v256h66l38 -132q15 -15 37 -29.5t49 -26.5t58 -19t64 -7q87 0 129.5 37.5t42.5 95.5q0 32 -12.5 55t-39.5 41t-68.5 34t-99.5 34q-48 15 -96 37.5t-85.5 58.5t-61 89t-23.5 130z " />
<glyph unicode="t" horiz-adv-x="682" d="M33 836v65l145 39l117 213h150v-213h198v-104h-198v-601q0 -65 27 -98t71 -33q34 0 67.5 5t62.5 11v-85q-14 -10 -41 -20t-59.5 -17.5t-68 -12.5t-66.5 -5q-75 0 -128.5 18t-87.5 49.5t-50 75t-16 94.5v619h-123z" />
<glyph unicode="u" horiz-adv-x="1139" d="M31 874v66h383v-649q0 -84 35.5 -131t101.5 -47q76 0 152 34v703l-86 24v66h375v-850l92 -24v-66h-365l-14 82q-31 -16 -68 -35t-78 -35t-85 -26.5t-89 -10.5q-57 0 -105 15t-82.5 48t-53.5 86t-19 128v598z" />
<glyph unicode="v" d="M0 874v66h481v-66l-112 -26l241 -536l217 538l-110 24v66h307v-66l-68 -20l-376 -874h-121l-393 870z" />
<glyph unicode="w" horiz-adv-x="1479" d="M6 874v66h465v-66l-112 -26l202 -537l218 535h95l217 -535l182 539l-110 24v66h305v-66l-72 -20l-316 -874h-121l-215 527l-214 -527h-121l-333 870z" />
<glyph unicode="x" d="M8 0v65l84 16l300 352l-270 417l-91 25v65h502v-65l-105 -27l137 -211l181 213l-94 25v65h320v-65l-83 -21l-264 -310l298 -458l90 -21v-65h-502v65l105 23l-164 253l-218 -255l94 -21v-65h-320z" />
<glyph unicode="y" d="M20 874v66h481v-66l-112 -26l221 -520l197 522l-110 24v66h307v-66l-68 -20l-371 -913q-32 -82 -65 -152t-73.5 -121.5t-92.5 -80.5t-121 -29q-28 0 -48.5 1t-39 3.5t-37 6t-40.5 8.5v242h60l43 -126q14 -11 31.5 -17t42.5 -6q41 0 71.5 21t55.5 56.5t46.5 83t45.5 100.5 l18 40l-376 879z" />
<glyph unicode="z" horiz-adv-x="909" d="M40 0v45l432 805h-107q-28 0 -55.5 -2.5t-52 -7t-43.5 -11t-29 -14.5l-31 -155h-72v280h730v-49l-432 -801h150q27 0 57.5 3.5t59 9.5t53 14.5t39.5 19.5l53 217h72l-27 -354h-797z" />
<glyph unicode="{" horiz-adv-x="807" d="M66 533v85q102 3 158.5 52.5t56.5 163.5v294q0 141 78 217t233 76h135v-87h-62q-69 0 -98.5 -44t-29.5 -131v-330q0 -50 -15.5 -92t-42.5 -74.5t-64 -54t-80 -30.5v-3q45 -10 82 -31.5t64 -54t41.5 -74.5t14.5 -93v-334q0 -86 29.5 -130.5t98.5 -44.5h62v-87h-135 q-77 0 -135.5 20.5t-97.5 59t-58.5 92.5t-19.5 122v295q0 58 -14.5 98.5t-42 66.5t-67.5 38.5t-91 14.5z" />
<glyph unicode="|" horiz-adv-x="451" d="M154 -442v1863h143v-1863h-143z" />
<glyph unicode="}" horiz-adv-x="807" d="M80 -187h62q69 0 98.5 44.5t29.5 130.5v334q0 51 14.5 93t41.5 74.5t64 54t82 31.5v3q-44 9 -81 30.5t-64 54t-42 74.5t-15 92v330q0 87 -29.5 131t-98.5 44h-62v87h135q155 0 233 -76t78 -217v-294q0 -114 56.5 -163.5t158.5 -52.5v-85q-51 -2 -91 -14.5t-67.5 -38.5 t-42 -66.5t-14.5 -98.5v-295q0 -68 -19.5 -122t-58.5 -92.5t-97.5 -59t-135.5 -20.5h-135v87z" />
<glyph unicode="~" horiz-adv-x="1065" d="M16 481q7 69 21 138t45 123.5t84.5 89t139.5 34.5q39 0 74 -11t67 -28.5t62 -39.5t57 -44q17 -15 40.5 -35t50 -39t53.5 -32t51 -13q33 0 57 13.5t41 42.5t29 75t20 111h144q-9 -68 -24.5 -137t-47 -124t-84 -89.5t-135.5 -34.5q-48 0 -92 18t-84 45t-77 58t-71.5 58 t-67 45t-63.5 18q-34 0 -59 -12t-42.5 -40.5t-29 -75t-18.5 -114.5h-141z" />
<glyph unicode="&#xa1;" horiz-adv-x="682" d="M174 795q0 34 13 64.5t35.5 53t52.5 35.5t65 13q34 0 64.5 -13t53 -35.5t35.5 -53t13 -64.5q0 -35 -13 -65t-35.5 -52.5t-53 -35.5t-64.5 -13q-35 0 -65 13t-52.5 35.5t-35.5 52.5t-13 65zM191 -409l92 921h115l92 -921h-299z" />
<glyph unicode="&#xa2;" d="M89 677q0 129 39 222.5t105.5 153.5t154.5 88.5t187 28.5h2v171h92v-175q65 -5 125.5 -13t111.5 -18v-278h-72l-54 165q-26 17 -51 27t-60 15v-754q34 0 70 2t70 6t64.5 9.5t53.5 11.5v-77q-44 -32 -114 -51t-144 -24v-187h-92v187q-129 5 -221.5 40.5t-152 98.5 t-87 151.5t-27.5 199.5zM380 683q0 -72 9.5 -132.5t32 -107.5t60.5 -78.5t95 -44.5v743q-39 -8 -74.5 -34t-62.5 -72.5t-43.5 -114.5t-16.5 -159z" />
<glyph unicode="&#xa3;" d="M82 620v101h88q-28 63 -47.5 133t-19.5 152q0 168 118.5 259t354.5 91q46 0 85.5 -3.5t76 -9t73 -13.5t76.5 -17v-305h-87l-43 194q-33 20 -78.5 36.5t-102.5 16.5q-91 0 -135 -63t-44 -186q0 -92 8 -159.5t18 -125.5h251v-101h-238q6 -38 10 -73.5t4 -79.5 q0 -84 -27 -142t-63 -103l600 1v-223h-873v123q33 30 71 62t69.5 69t52.5 80t21 96q0 45 -16.5 91.5t-39.5 98.5h-163z" />
<glyph unicode="&#xa4;" d="M84 350l102 103q-32 48 -49.5 104t-17.5 119t17.5 119t49.5 104l-102 105l104 104l101 -107q48 32 104 51t119 19q62 0 118.5 -19t104.5 -51l105 105l102 -100l-104 -107q32 -48 50.5 -104.5t18.5 -118.5q0 -63 -18.5 -119t-50.5 -104l104 -103l-100 -102l-107 104 q-48 -34 -104.5 -51.5t-118.5 -17.5q-63 0 -119 18.5t-104 50.5l-105 -104zM258 676q0 -52 20 -98.5t54.5 -81t81 -54.5t98.5 -20q53 0 99.5 20t81.5 54.5t55 81t20 98.5q0 53 -20 99.5t-55 81.5t-81.5 55t-99.5 20q-52 0 -98.5 -20t-81 -55t-54.5 -81.5t-20 -99.5z" />
<glyph unicode="&#xa5;" d="M2 1275v66h499v-66l-112 -26l206 -540l212 542l-110 24v66h325v-66l-86 -20l-257 -616h226v-102h-244v-138h244v-102h-244v-207l143 -24v-66h-574v66l142 24v207h-257v102h257v138h-257v102h233l-262 612z" />
<glyph unicode="&#xa6;" horiz-adv-x="451" d="M154 180h142v-622h-142v622zM154 801v620h142v-620h-142z" />
<glyph unicode="&#xa7;" d="M130 560q0 52 16 96.5t45 79t69 59.5t88 39q-37 20 -69.5 45t-57 58t-38.5 75.5t-14 97.5q0 68 26.5 120t72.5 87.5t108 54t133 18.5q70 0 140.5 -9t136.5 -20v-241h-66l-32 110q-13 13 -33 25t-44.5 21t-51.5 14.5t-52 5.5q-72 0 -106.5 -29.5t-34.5 -80.5 q0 -46 22.5 -78.5t60 -57t84.5 -45t96.5 -42.5t97 -48.5t85 -63.5t60 -88t22.5 -121q0 -51 -14 -98t-42 -85.5t-71 -68t-101 -46.5q39 -24 73 -53t60 -65.5t41 -81.5t15 -102q0 -66 -22.5 -120.5t-69 -94t-117.5 -61t-168 -21.5q-48 0 -97 6t-91 14.5t-73.5 17t-44.5 13.5 v261h66l38 -132q15 -15 37 -30.5t49 -28t58 -20.5t64 -8q81 0 125 37.5t44 95.5q0 47 -22.5 82t-59 63.5t-83.5 53t-96.5 50.5t-96.5 56t-83.5 70t-59 92t-22.5 122zM327 636q0 -40 17.5 -71.5t47 -57.5t68.5 -48.5t81 -44.5q33 6 61 21.5t48 37.5t31 47t11 51q0 41 -17 71 t-46.5 53.5t-67.5 42t-80 36.5q-32 -4 -60 -17t-49 -32.5t-33 -42.5t-12 -46z" />
<glyph unicode="&#xa8;" horiz-adv-x="682" d="M53 1251q0 25 10 46.5t26.5 37.5t38.5 25.5t46 9.5q25 0 46.5 -9.5t37.5 -25.5t25.5 -37.5t9.5 -46.5q0 -24 -9 -46t-25 -38.5t-38 -26.5t-47 -10q-24 0 -46 10t-38.5 26.5t-26.5 38.5t-10 46zM389 1251q0 25 9.5 46.5t26 37.5t38.5 25.5t47 9.5t47 -9.5t38 -25.5 t25 -37.5t9 -46.5q0 -24 -9 -46t-25 -38.5t-38 -26.5t-47 -10t-47 10t-38.5 26.5t-26 38.5t-9.5 46z" />
<glyph unicode="&#xa9;" horiz-adv-x="1530" d="M88 670q0 96 24.5 184.5t69.5 165.5t107.5 140t139.5 108t165 69.5t184 24.5t184.5 -24.5t165.5 -69.5t140 -108t108 -140t69.5 -165.5t24.5 -184.5t-24.5 -184t-69.5 -165t-108 -139.5t-140 -107.5t-165.5 -69.5t-184.5 -24.5q-144 0 -269.5 54t-219 147.5t-147.5 219 t-54 269.5zM178 670q0 -126 47 -236.5t128 -193t190.5 -130t234.5 -47.5q124 0 234 47.5t191.5 130t129 193t47.5 236.5q0 84 -21.5 161.5t-61 145.5t-94 123t-121.5 95t-144 61.5t-160 21.5q-125 0 -234.5 -48t-190.5 -130.5t-128 -193t-47 -236.5zM387 664q0 108 29.5 188 t85 132.5t134.5 78.5t179 26q82 0 147.5 -9.5t120.5 -20.5l4 -207h-69l-19 105q-41 25 -82 38t-98 13q-66 0 -112 -18.5t-75 -59t-42 -106t-13 -158.5q0 -165 53.5 -248.5t182.5 -83.5q75 0 119.5 17t75.5 42l22 119h70l-4 -219q-26 -8 -58 -15t-69 -12.5t-76.5 -8.5 t-79.5 -3q-99 0 -178 28.5t-134 82t-84.5 129t-29.5 170.5z" />
<glyph unicode="&#xaa;" horiz-adv-x="614" d="M28 942q0 58 23.5 93.5t62.5 55t88.5 26.5t100.5 8l62 2v69q0 50 -27.5 75t-69.5 25q-33 0 -54.5 -9t-47.5 -22l-23 -77h-49v153q27 4 53.5 8t54 7t57 4.5t64.5 1.5q46 0 85.5 -11t68.5 -33t45.5 -55t16.5 -77v-336l56 -15v-49h-214l-7 43q-8 -8 -21.5 -17.5t-33 -17.5 t-45 -14t-57.5 -6q-53 0 -89 12.5t-58.5 35t-32 53.5t-9.5 67zM201 945q0 -50 18.5 -69.5t44.5 -19.5q33 0 55 7.5t46 19.5v181l-56 -2q-26 -1 -46 -6t-34 -18t-21 -35.5t-7 -57.5z" />
<glyph unicode="&#xab;" d="M106 430v66l330 356h101l-183 -389l183 -389h-101zM516 430v66l330 356h100l-182 -389l182 -389h-100z" />
<glyph unicode="&#xac;" horiz-adv-x="1167" d="M102 608v144h953v-549h-142v405h-811z" />
<glyph unicode="&#xad;" horiz-adv-x="682" d="M75 395v174h532v-174h-532z" />
<glyph unicode="&#xae;" horiz-adv-x="1530" d="M88 670q0 96 24.5 184.5t69.5 165.5t107.5 140t139.5 108t165 69.5t184 24.5t184.5 -24.5t165.5 -69.5t140 -108t108 -140t69.5 -165.5t24.5 -184.5t-24.5 -184t-69.5 -165t-108 -139.5t-140 -107.5t-165.5 -69.5t-184.5 -24.5q-144 0 -269.5 54t-219 147.5t-147.5 219 t-54 269.5zM178 670q0 -126 47 -236.5t128 -193t190.5 -130t234.5 -47.5q124 0 234 47.5t191.5 130t129 193t47.5 236.5q0 84 -21.5 161.5t-61 145.5t-94 123t-121.5 95t-144 61.5t-160 21.5q-125 0 -234.5 -48t-190.5 -130.5t-128 -193t-47 -236.5zM428 1026v55h350 q84 0 143.5 -16t98 -45.5t56.5 -70t18 -89.5q0 -77 -45.5 -135t-133.5 -86l207 -289l70 -16v-58h-225l-230 343h-49v-269l94 -16v-58h-346v58l76 16v660zM688 694h23q104 0 152 36t48 128q0 48 -13 77t-38.5 44.5t-63.5 21t-89 5.5h-19v-312z" />
<glyph unicode="&#xaf;" d="M-17 1392v149h1059v-149h-1059z" />
<glyph unicode="&#xb0;" horiz-adv-x="819" d="M98 1051q0 64 24 121t66 99t98.5 66.5t121.5 24.5q64 0 121 -24.5t99 -66.5t66.5 -99t24.5 -121q0 -65 -24.5 -121.5t-66.5 -98.5t-99 -66t-121 -24q-65 0 -121.5 24t-98.5 66t-66 98.5t-24 121.5zM217 1049q0 -41 14.5 -77t40 -63t60.5 -43t75 -16q42 0 77 16t60.5 43 t40 63t14.5 77q0 43 -14.5 79.5t-40 63.5t-60.5 42.5t-77 15.5q-40 0 -75 -15.5t-60.5 -42.5t-40 -63.5t-14.5 -79.5z" />
<glyph unicode="&#xb1;" horiz-adv-x="1124" d="M86 0v141h953v-141h-953zM86 608v144h404v405h143v-405h406v-144h-406v-405h-143v405h-404z" />
<glyph unicode="&#xb2;" horiz-adv-x="614" d="M56 536v113q77 83 136 141t99 110t60.5 108t20.5 135q0 36 -8.5 62t-23.5 42t-35.5 23.5t-43.5 7.5q-53 0 -90 -31l-26 -116h-62v193q48 11 93.5 18.5t99.5 7.5q133 0 203.5 -55t70.5 -155q0 -48 -10 -86.5t-29.5 -72t-49.5 -65.5t-70 -67.5t-90 -77t-110 -94.5h375v-141 h-510z" />
<glyph unicode="&#xb3;" horiz-adv-x="614" d="M45 752h65l32 -132q19 -11 44.5 -18.5t54.5 -7.5q79 0 114 44t35 122q0 43 -11 71.5t-29.5 45t-44 24t-54.5 9.5l-64 4v83l62 4q54 4 79 37t25 105q0 74 -30 104t-81 30q-26 0 -44.5 -8t-37.5 -20l-26 -119h-62v193q43 11 87.5 18.5t105.5 7.5q133 0 201.5 -49t68.5 -149 q0 -76 -39.5 -128.5t-126.5 -66.5q104 -13 153 -62.5t49 -139.5q0 -109 -77 -170t-220 -61q-61 0 -118 6.5t-104 17.5z" />
<glyph unicode="&#xb4;" horiz-adv-x="682" d="M145 1118v33l166 272h285v-37l-365 -268h-86z" />
<glyph unicode="&#xb5;" horiz-adv-x="1180" d="M35 874v66h383v-652q0 -91 38 -132.5t117 -41.5q31 0 58 7t50.5 18t43.5 25t38 29v656l-86 25v66h375v-850l92 -25v-65h-357l-19 92q-20 -20 -43 -40t-50.5 -36t-59.5 -26t-71 -10q-50 0 -84 13.5t-60 38.5q0 -35 -1.5 -92t-3.5 -122t-4 -132t-4 -122h-282v45 q11 119 17.5 241.5t6.5 252.5v746z" />
<glyph unicode="&#xb6;" horiz-adv-x="1106" d="M97 952q0 90 27.5 162t82 122.5t136 77.5t188.5 27h488v-73l-83 -23v-1503h-140v1503h-135v-1503h-140v803q-87 3 -164.5 29.5t-135 76.5t-91 125t-33.5 176z" />
<glyph unicode="&#xb7;" horiz-adv-x="683" d="M175 677q0 34 13 64.5t35.5 53t52.5 35.5t65 13q34 0 64.5 -13t53 -35.5t35.5 -53t13 -64.5q0 -35 -13 -65t-35.5 -52.5t-53 -35.5t-64.5 -13q-35 0 -65 13t-52.5 35.5t-35.5 52.5t-13 65z" />
<glyph unicode="&#xb8;" horiz-adv-x="682" d="M123 -301q34 -9 72 -14t63 -5q51 0 71.5 25t20.5 61q0 44 -31 67.5t-100 28.5l51 195h111l-23 -110q41 -6 75 -18t58.5 -32.5t38 -49.5t13.5 -68q0 -50 -20 -87.5t-55 -62.5t-82.5 -38t-102.5 -13q-38 0 -82 8t-78 23v90z" />
<glyph unicode="&#xb9;" horiz-adv-x="614" d="M76 535v67l139 14v577l-139 -46v66l227 134h90v-731l140 -14v-67h-457z" />
<glyph unicode="&#xba;" horiz-adv-x="676" d="M57 1067q0 144 71 219t210 75q135 0 207.5 -74t72.5 -220q0 -144 -70.5 -220.5t-213.5 -76.5q-135 0 -206 75.5t-71 221.5zM233 1067q0 -118 24.5 -172.5t77.5 -54.5q54 0 80.5 54.5t26.5 172.5q0 117 -27 170t-80 53t-77.5 -53t-24.5 -170z" />
<glyph unicode="&#xbb;" d="M78 74l182 389l-182 389h100l330 -356v-66l-330 -356h-100zM487 74l183 389l-183 389h101l330 -356v-66l-330 -356h-101z" />
<glyph unicode="&#xbc;" horiz-adv-x="1536" d="M86 535v67l139 14v577l-139 -46v66l227 134h90v-731l140 -14v-67h-457zM263 0l965 1341h120l-962 -1341h-123zM823 157v98l361 552h134v-527h80v-123h-80v-159h-168v159h-327zM932 280h218v333h-3z" />
<glyph unicode="&#xbd;" horiz-adv-x="1536" d="M79 535v67l139 14v577l-139 -46v66l227 134h90v-731l140 -14v-67h-457zM266 0l965 1341h120l-962 -1341h-123zM947 2v113q77 83 136 141t99 110t60.5 108t20.5 135q0 36 -8.5 62t-23.5 42t-35.5 23.5t-43.5 7.5q-53 0 -90 -31l-26 -116h-62v193q48 11 93.5 18.5t99.5 7.5 q133 0 203.5 -55t70.5 -155q0 -48 -10 -86.5t-29.5 -72t-49.5 -65.5t-70 -67.5t-90 -77t-110 -94.5h375v-141h-510z" />
<glyph unicode="&#xbe;" horiz-adv-x="1536" d="M96 752h65l32 -132q19 -11 44.5 -18.5t54.5 -7.5q79 0 114 44t35 122q0 43 -11 71.5t-29.5 45t-44 24t-54.5 9.5l-64 4v83l62 4q54 4 79 37t25 105q0 74 -30 104t-81 30q-26 0 -44.5 -8t-37.5 -20l-26 -119h-62v193q43 11 87.5 18.5t105.5 7.5q133 0 201.5 -49t68.5 -149 q0 -76 -39.5 -128.5t-126.5 -66.5q104 -13 153 -62.5t49 -139.5q0 -109 -77 -170t-220 -61q-61 0 -118 6.5t-104 17.5zM263 0l965 1341h120l-962 -1341h-123zM844 157v98l361 552h134v-527h80v-123h-80v-159h-168v159h-327zM953 280h218v333h-3z" />
<glyph unicode="&#xbf;" d="M124 -69q0 67 18 128t55 111t93 87.5t131 58.5l87 24l27 202h103l57 -313l-95 -25q-38 -10 -72 -26.5t-59.5 -46.5t-40.5 -76.5t-15 -116.5q0 -71 12 -120t37.5 -80.5t64.5 -45.5t94 -14q48 0 84.5 12t64.5 30l43 194h89v-295q-77 -20 -154.5 -31.5t-169.5 -11.5 q-225 0 -339.5 88.5t-114.5 266.5zM415 795q0 34 13 64.5t35.5 53t52.5 35.5t65 13t65.5 -13t52.5 -35.5t34.5 -53t12.5 -64.5q0 -35 -12.5 -65t-34.5 -52.5t-52.5 -35.5t-65.5 -13t-65 13t-52.5 35.5t-35.5 52.5t-13 65z" />
<glyph unicode="&#xc0;" horiz-adv-x="1479" d="M20 0v73l100 27l477 1252h290l475 -1252l102 -27v-73h-597v73l155 27l-128 347h-515l-123 -347l172 -27v-73h-408zM420 557h436l-215 593zM451 1720v37h285l165 -273v-32h-86z" />
<glyph unicode="&#xc1;" horiz-adv-x="1479" d="M20 0v73l100 27l477 1252h290l475 -1252l102 -27v-73h-597v73l155 27l-128 347h-515l-123 -347l172 -27v-73h-408zM420 557h436l-215 593zM602 1452v33l166 272h285v-37l-365 -268h-86z" />
<glyph unicode="&#xc2;" horiz-adv-x="1479" d="M20 0v73l100 27l477 1252h290l475 -1252l102 -27v-73h-597v73l155 27l-128 347h-515l-123 -347l172 -27v-73h-408zM416 1452v33l218 293h213l217 -293v-33h-76l-248 162l-248 -162h-76zM420 557h436l-215 593z" />
<glyph unicode="&#xc3;" horiz-adv-x="1479" d="M20 0v73l100 27l477 1252h290l475 -1252l102 -27v-73h-597v73l155 27l-128 347h-515l-123 -347l172 -27v-73h-408zM393 1472q4 56 15 108t35 91.5t63.5 63.5t101.5 24q53 0 95 -21.5t77 -46.5q11 -8 25.5 -18.5t30 -20.5t31 -17t28.5 -7q18 0 29.5 6t19 19.5t11.5 35 t9 51.5h105q-4 -56 -15 -107.5t-35 -91.5t-64 -63.5t-101 -23.5q-26 0 -49.5 6.5t-45 16t-40.5 22t-37 24.5q-11 8 -25 19t-29.5 21t-31 17t-29.5 7q-19 0 -30.5 -6t-18.5 -20t-11.5 -36t-8.5 -53h-105zM420 557h436l-215 593z" />
<glyph unicode="&#xc4;" horiz-adv-x="1479" d="M20 0v73l100 27l477 1252h290l475 -1252l102 -27v-73h-597v73l155 27l-128 347h-515l-123 -347l172 -27v-73h-408zM420 557h436l-215 593zM448 1585q0 25 10 46.5t26.5 37.5t38.5 25.5t46 9.5q25 0 46.5 -9.5t37.5 -25.5t25.5 -37.5t9.5 -46.5q0 -24 -9 -46t-25 -38.5 t-38 -26.5t-47 -10q-24 0 -46 10t-38.5 26.5t-26.5 38.5t-10 46zM784 1585q0 25 9.5 46.5t26 37.5t38.5 25.5t47 9.5t47 -9.5t38 -25.5t25 -37.5t9 -46.5q0 -24 -9 -46t-25 -38.5t-38 -26.5t-47 -10t-47 10t-38.5 26.5t-26 38.5t-9.5 46z" />
<glyph unicode="&#xc5;" horiz-adv-x="1479" d="M20 0v73l100 27l477 1252h290l475 -1252l102 -27v-73h-597v73l155 27l-128 347h-515l-123 -347l172 -27v-73h-408zM420 557h436l-215 593zM521 1485q0 44 16 82.5t44.5 67t67 45t83.5 16.5t83.5 -16.5t67 -45t44.5 -67t16 -82.5t-16 -82.5t-44.5 -67.5t-67 -46t-83.5 -17 t-83.5 17t-67 46t-44.5 67.5t-16 82.5zM634 1485q0 -20 8 -37.5t21.5 -31t31 -21.5t37.5 -8t37.5 8t31 21.5t21.5 31t8 37.5t-8 38t-21.5 31.5t-31 21.5t-37.5 8t-37.5 -8t-31 -21.5t-21.5 -31.5t-8 -38z" />
<glyph unicode="&#xc6;" horiz-adv-x="2048" d="M14 0v73l122 27l691 1152l-143 18v71h1174v-341h-91l-32 217q-32 4 -68 7t-72 4.5t-68.5 2t-55.5 0.5h-200v-492h283l31 148h89v-412h-89l-31 152h-283v-517h245q62 0 107.5 1.5t78.5 3.5t55 5t37 6l57 248h91l-19 -374h-1139v73l172 27v347h-461l-205 -347l152 -27v-73 h-428zM560 557h396v679z" />
<glyph unicode="&#xc7;" horiz-adv-x="1479" d="M100 655q0 180 48.5 312t140 218.5t224 128.5t301.5 42q143 0 264.5 -20.5t218.5 -46.5l6 -322h-90l-28 194q-63 43 -142 66.5t-165 23.5q-105 0 -188 -30.5t-140.5 -100.5t-87.5 -183t-30 -279q0 -146 30 -254t86 -179t137.5 -106.5t184.5 -35.5q113 0 197.5 30 t132.5 71l32 220h91l-6 -340q-43 -17 -101.5 -32t-125 -26.5t-137.5 -18.5t-138 -7q-169 0 -301.5 46t-224.5 133t-140.5 212.5t-48.5 283.5zM580 -301q34 -9 72 -14t63 -5q51 0 71.5 25t20.5 61q0 44 -31 67.5t-100 28.5l51 195h111l-23 -110q41 -6 75 -18t58.5 -32.5 t38 -49.5t13.5 -68q0 -50 -20 -87.5t-55 -62.5t-82.5 -38t-102.5 -13q-38 0 -82 8t-78 23v90z" />
<glyph unicode="&#xc8;" horiz-adv-x="1366" d="M35 0v73l172 27v1142l-172 26v73h1142v-341h-91l-32 217q-32 4 -77.5 7t-92.5 4.5t-89 2t-65 0.5h-208v-492h351l31 148h89v-412h-89l-31 152h-351v-517h253q62 0 117 1.5t99 3.5t75.5 5t46.5 6l57 248h91l-19 -374h-1207zM430 1720v37h285l165 -273v-32h-86z" />
<glyph unicode="&#xc9;" horiz-adv-x="1366" d="M35 0v73l172 27v1142l-172 26v73h1142v-341h-91l-32 217q-32 4 -77.5 7t-92.5 4.5t-89 2t-65 0.5h-208v-492h351l31 148h89v-412h-89l-31 152h-351v-517h253q62 0 117 1.5t99 3.5t75.5 5t46.5 6l57 248h91l-19 -374h-1207zM538 1452v33l166 272h285v-37l-365 -268h-86z " />
<glyph unicode="&#xca;" horiz-adv-x="1366" d="M35 0v73l172 27v1142l-172 26v73h1142v-341h-91l-32 217q-32 4 -77.5 7t-92.5 4.5t-89 2t-65 0.5h-208v-492h351l31 148h89v-412h-89l-31 152h-351v-517h253q62 0 117 1.5t99 3.5t75.5 5t46.5 6l57 248h91l-19 -374h-1207zM358 1452v33l218 293h213l217 -293v-33h-76 l-248 162l-248 -162h-76z" />
<glyph unicode="&#xcb;" horiz-adv-x="1366" d="M35 0v73l172 27v1142l-172 26v73h1142v-341h-91l-32 217q-32 4 -77.5 7t-92.5 4.5t-89 2t-65 0.5h-208v-492h351l31 148h89v-412h-89l-31 152h-351v-517h253q62 0 117 1.5t99 3.5t75.5 5t46.5 6l57 248h91l-19 -374h-1207zM395 1585q0 25 10 46.5t26.5 37.5t38.5 25.5 t46 9.5q25 0 46.5 -9.5t37.5 -25.5t25.5 -37.5t9.5 -46.5q0 -24 -9 -46t-25 -38.5t-38 -26.5t-47 -10q-24 0 -46 10t-38.5 26.5t-26.5 38.5t-10 46zM731 1585q0 25 9.5 46.5t26 37.5t38.5 25.5t47 9.5t47 -9.5t38 -25.5t25 -37.5t9 -46.5q0 -24 -9 -46t-25 -38.5t-38 -26.5 t-47 -10t-47 10t-38.5 26.5t-26 38.5t-9.5 46z" />
<glyph unicode="&#xcc;" horiz-adv-x="797" d="M69 0v74l172 26v1141l-172 27v73h659v-73l-172 -27v-1141l172 -26v-74h-659zM139 1720v37h285l165 -273v-32h-86z" />
<glyph unicode="&#xcd;" horiz-adv-x="797" d="M69 0v74l172 26v1141l-172 27v73h659v-73l-172 -27v-1141l172 -26v-74h-659zM238 1452v33l166 272h285v-37l-365 -268h-86z" />
<glyph unicode="&#xce;" horiz-adv-x="797" d="M69 0v74l172 26v1141l-172 27v73h659v-73l-172 -27v-1141l172 -26v-74h-659zM71 1452v33l218 293h213l217 -293v-33h-76l-248 162l-248 -162h-76z" />
<glyph unicode="&#xcf;" horiz-adv-x="797" d="M69 0v74l172 26v1141l-172 27v73h659v-73l-172 -27v-1141l172 -26v-74h-659zM108 1585q0 25 10 46.5t26.5 37.5t38.5 25.5t46 9.5q25 0 46.5 -9.5t37.5 -25.5t25.5 -37.5t9.5 -46.5q0 -24 -9 -46t-25 -38.5t-38 -26.5t-47 -10q-24 0 -46 10t-38.5 26.5t-26.5 38.5t-10 46 zM444 1585q0 25 9.5 46.5t26 37.5t38.5 25.5t47 9.5t47 -9.5t38 -25.5t25 -37.5t9 -46.5q0 -24 -9 -46t-25 -38.5t-38 -26.5t-47 -10t-47 10t-38.5 26.5t-26 38.5t-9.5 46z" />
<glyph unicode="&#xd0;" horiz-adv-x="1479" d="M51 609v122h179v511l-172 26v73h637q162 0 292.5 -34.5t222.5 -112.5t141.5 -204.5t49.5 -311.5q0 -164 -38 -291t-119 -214t-206.5 -132t-300.5 -45q-57 0 -120 0.5t-123 1.5t-113.5 1.5t-92.5 0.5h-208v73l150 27v509h-179zM544 114q24 -2 43.5 -3t39 -2.5t41 -2 t50.5 -0.5q100 0 167 32.5t108 101.5t58.5 175.5t17.5 254.5q0 157 -29.5 264.5t-86.5 173.5t-141 94.5t-194 28.5h-74v-500h256v-122h-256v-495z" />
<glyph unicode="&#xd1;" horiz-adv-x="1479" d="M39 0v73l172 27v1142l-172 26v73h459l657 -857v758l-180 26v73h477v-73l-172 -26v-1242h-117l-827 1078v-978l180 -27v-73h-477zM413 1472q4 56 15 108t35 91.5t63.5 63.5t101.5 24q53 0 95 -21.5t77 -46.5q11 -8 25.5 -18.5t30 -20.5t31 -17t28.5 -7q18 0 29.5 6 t19 19.5t11.5 35t9 51.5h105q-4 -56 -15 -107.5t-35 -91.5t-64 -63.5t-101 -23.5q-26 0 -49.5 6.5t-45 16t-40.5 22t-37 24.5q-11 8 -25 19t-29.5 21t-31 17t-29.5 7q-19 0 -30.5 -6t-18.5 -20t-11.5 -36t-8.5 -53h-105z" />
<glyph unicode="&#xd2;" horiz-adv-x="1593" d="M100 672q0 178 46 307t135 213t218.5 124t297.5 40q162 0 291 -40t219 -124t138 -213t48 -307t-48 -308.5t-138 -215.5t-219 -126.5t-291 -41.5t-291 41.5t-219.5 126.5t-138.5 215.5t-48 308.5zM432 672q0 -140 17 -250t59 -186t112.5 -116t176.5 -40t176 40t112 116 t59 186t17 250q0 139 -17 248t-59 183t-112 113t-176 39t-176.5 -39t-112.5 -113t-59 -183t-17 -248zM491 1720v37h285l165 -273v-32h-86z" />
<glyph unicode="&#xd3;" horiz-adv-x="1593" d="M100 672q0 178 46 307t135 213t218.5 124t297.5 40q162 0 291 -40t219 -124t138 -213t48 -307t-48 -308.5t-138 -215.5t-219 -126.5t-291 -41.5t-291 41.5t-219.5 126.5t-138.5 215.5t-48 308.5zM432 672q0 -140 17 -250t59 -186t112.5 -116t176.5 -40t176 40t112 116 t59 186t17 250q0 139 -17 248t-59 183t-112 113t-176 39t-176.5 -39t-112.5 -113t-59 -183t-17 -248zM695 1452v33l166 272h285v-37l-365 -268h-86z" />
<glyph unicode="&#xd4;" horiz-adv-x="1593" d="M100 672q0 178 46 307t135 213t218.5 124t297.5 40q162 0 291 -40t219 -124t138 -213t48 -307t-48 -308.5t-138 -215.5t-219 -126.5t-291 -41.5t-291 41.5t-219.5 126.5t-138.5 215.5t-48 308.5zM432 672q0 -140 17 -250t59 -186t112.5 -116t176.5 -40t176 40t112 116 t59 186t17 250q0 139 -17 248t-59 183t-112 113t-176 39t-176.5 -39t-112.5 -113t-59 -183t-17 -248zM473 1452v33l218 293h213l217 -293v-33h-76l-248 162l-248 -162h-76z" />
<glyph unicode="&#xd5;" horiz-adv-x="1593" d="M100 672q0 178 46 307t135 213t218.5 124t297.5 40q162 0 291 -40t219 -124t138 -213t48 -307t-48 -308.5t-138 -215.5t-219 -126.5t-291 -41.5t-291 41.5t-219.5 126.5t-138.5 215.5t-48 308.5zM432 672q0 -140 17 -250t59 -186t112.5 -116t176.5 -40t176 40t112 116 t59 186t17 250q0 139 -17 248t-59 183t-112 113t-176 39t-176.5 -39t-112.5 -113t-59 -183t-17 -248zM457 1472q4 56 15 108t35 91.5t63.5 63.5t101.5 24q53 0 95 -21.5t77 -46.5q11 -8 25.5 -18.5t30 -20.5t31 -17t28.5 -7q18 0 29.5 6t19 19.5t11.5 35t9 51.5h105 q-4 -56 -15 -107.5t-35 -91.5t-64 -63.5t-101 -23.5q-26 0 -49.5 6.5t-45 16t-40.5 22t-37 24.5q-11 8 -25 19t-29.5 21t-31 17t-29.5 7q-19 0 -30.5 -6t-18.5 -20t-11.5 -36t-8.5 -53h-105z" />
<glyph unicode="&#xd6;" horiz-adv-x="1593" d="M100 672q0 178 46 307t135 213t218.5 124t297.5 40q162 0 291 -40t219 -124t138 -213t48 -307t-48 -308.5t-138 -215.5t-219 -126.5t-291 -41.5t-291 41.5t-219.5 126.5t-138.5 215.5t-48 308.5zM432 672q0 -140 17 -250t59 -186t112.5 -116t176.5 -40t176 40t112 116 t59 186t17 250q0 139 -17 248t-59 183t-112 113t-176 39t-176.5 -39t-112.5 -113t-59 -183t-17 -248zM514 1585q0 25 10 46.5t26.5 37.5t38.5 25.5t46 9.5q25 0 46.5 -9.5t37.5 -25.5t25.5 -37.5t9.5 -46.5q0 -24 -9 -46t-25 -38.5t-38 -26.5t-47 -10q-24 0 -46 10 t-38.5 26.5t-26.5 38.5t-10 46zM850 1585q0 25 9.5 46.5t26 37.5t38.5 25.5t47 9.5t47 -9.5t38 -25.5t25 -37.5t9 -46.5q0 -24 -9 -46t-25 -38.5t-38 -26.5t-47 -10t-47 10t-38.5 26.5t-26 38.5t-9.5 46z" />
<glyph unicode="&#xd7;" horiz-adv-x="1167" d="M152 356l324 326l-324 322l104 104l322 -324l326 324l101 -102l-324 -324l324 -326l-101 -102l-326 324l-325 -324z" />
<glyph unicode="&#xd8;" horiz-adv-x="1593" d="M100 672q0 178 46 307t135 213t218.5 124t297.5 40q125 0 229 -23.5t187 -71.5l108 130h145l-162 -197q92 -84 140.5 -213t48.5 -309q0 -178 -48 -308.5t-138 -215.5t-219 -126.5t-291 -41.5q-124 0 -227 23.5t-187 71.5l-107 -130h-149l164 199q-93 85 -142 215.5 t-49 312.5zM432 672q0 -94 7 -173.5t24 -145.5l621 751q-42 74 -111.5 112.5t-175.5 38.5t-176.5 -39t-112.5 -113t-59 -183t-17 -248zM511 231q42 -74 111.5 -112.5t174.5 -38.5q106 0 176 40t112 116t59 186t17 250q0 91 -7 169t-24 142z" />
<glyph unicode="&#xd9;" horiz-adv-x="1479" d="M51 1268v73h639v-73l-172 -26v-787q0 -76 19 -137.5t58 -105t99.5 -67t143.5 -23.5q82 0 141.5 24.5t98 68t56.5 104.5t18 134v789l-180 26v73h456v-73l-152 -26v-781q0 -89 -24.5 -175t-83.5 -154t-159 -109.5t-250 -41.5q-140 0 -244 33.5t-173.5 96.5t-104 153.5 t-34.5 204.5v773zM485 1720v37h285l165 -273v-32h-86z" />
<glyph unicode="&#xda;" horiz-adv-x="1479" d="M51 1268v73h639v-73l-172 -26v-787q0 -76 19 -137.5t58 -105t99.5 -67t143.5 -23.5q82 0 141.5 24.5t98 68t56.5 104.5t18 134v789l-180 26v73h456v-73l-152 -26v-781q0 -89 -24.5 -175t-83.5 -154t-159 -109.5t-250 -41.5q-140 0 -244 33.5t-173.5 96.5t-104 153.5 t-34.5 204.5v773zM706 1452v33l166 272h285v-37l-365 -268h-86z" />
<glyph unicode="&#xdb;" horiz-adv-x="1479" d="M51 1268v73h639v-73l-172 -26v-787q0 -76 19 -137.5t58 -105t99.5 -67t143.5 -23.5q82 0 141.5 24.5t98 68t56.5 104.5t18 134v789l-180 26v73h456v-73l-152 -26v-781q0 -89 -24.5 -175t-83.5 -154t-159 -109.5t-250 -41.5q-140 0 -244 33.5t-173.5 96.5t-104 153.5 t-34.5 204.5v773zM478 1452v33l218 293h213l217 -293v-33h-76l-248 162l-248 -162h-76z" />
<glyph unicode="&#xdc;" horiz-adv-x="1479" d="M51 1268v73h639v-73l-172 -26v-787q0 -76 19 -137.5t58 -105t99.5 -67t143.5 -23.5q82 0 141.5 24.5t98 68t56.5 104.5t18 134v789l-180 26v73h456v-73l-152 -26v-781q0 -89 -24.5 -175t-83.5 -154t-159 -109.5t-250 -41.5q-140 0 -244 33.5t-173.5 96.5t-104 153.5 t-34.5 204.5v773zM508 1585q0 25 10 46.5t26.5 37.5t38.5 25.5t46 9.5q25 0 46.5 -9.5t37.5 -25.5t25.5 -37.5t9.5 -46.5q0 -24 -9 -46t-25 -38.5t-38 -26.5t-47 -10q-24 0 -46 10t-38.5 26.5t-26.5 38.5t-10 46zM844 1585q0 25 9.5 46.5t26 37.5t38.5 25.5t47 9.5t47 -9.5 t38 -25.5t25 -37.5t9 -46.5q0 -24 -9 -46t-25 -38.5t-38 -26.5t-47 -10t-47 10t-38.5 26.5t-26 38.5t-9.5 46z" />
<glyph unicode="&#xdd;" horiz-adv-x="1479" d="M36 1268v73h690v-73l-180 -26l306 -562l296 562l-164 26v73h456v-73l-142 -26l-387 -714v-428l213 -27v-73h-742v73l213 27v422l-408 720zM643 1452v33l166 272h285v-37l-365 -268h-86z" />
<glyph unicode="&#xde;" horiz-adv-x="1251" d="M43 0v74l172 26v1141l-172 27v73h659v-73l-172 -27v-158h56q168 0 277.5 -30.5t174 -84t90 -125.5t25.5 -155q0 -82 -21.5 -158t-77 -134t-150.5 -93t-241 -35h-133v-168l172 -26v-74h-659zM530 378h36q76 0 126.5 19.5t81.5 58t44 96t13 134.5q0 80 -14 135t-45.5 88.5 t-83 48.5t-126.5 15h-32v-595z" />
<glyph unicode="&#xdf;" horiz-adv-x="1139" d="M43 0v66l82 24v862q0 119 24.5 210.5t77 153.5t134.5 94t197 32q215 0 323 -115.5t114 -341.5q-46 0 -84.5 -8t-66 -25.5t-43 -44.5t-15.5 -66q0 -47 17 -86.5t45.5 -75.5t64.5 -72.5t74 -77.5q20 -22 38.5 -47t32.5 -55.5t22 -67.5t8 -82q0 -66 -22.5 -120.5t-67 -94 t-109.5 -61t-149 -21.5q-40 0 -77.5 4t-70 10t-57.5 13t-39 14v248h66l38 -142q24 -30 53.5 -43t67.5 -11q25 1 45.5 12.5t35.5 31t23.5 45t8.5 54.5q0 51 -20 89.5t-50 73t-66 69.5t-68 78q-17 22 -33.5 47t-29.5 55.5t-21.5 68.5t-8.5 88q0 51 13.5 92.5t36.5 74.5 t53.5 56.5t65.5 37.5q-6 149 -41 222t-113 73q-44 0 -71 -24t-42 -73t-20 -122t-5 -170v-952h-371z" />
<glyph unicode="&#xe0;" d="M66 260q0 97 34 155t91.5 89.5t134 41.5t162.5 12l122 3v137q0 83 -34 126.5t-105 43.5q-55 0 -100.5 -15.5t-87.5 -36.5l-38 -117h-66v227q46 7 87.5 13t84.5 11t90.5 8t104.5 3q77 0 142 -13t112 -43.5t73 -80.5t26 -123v-611l94 -24v-66h-346l-22 72 q-19 -13 -44.5 -29t-58.5 -30t-74 -23.5t-91 -9.5q-82 0 -137.5 21t-89.5 58.5t-49 89t-15 111.5zM258 1386v37h285l165 -273v-32h-86zM354 266q0 -85 30 -125t78 -40t82 10.5t66 24.5v336l-84 -3q-44 -2 -76 -12t-53.5 -33.5t-32 -61.5t-10.5 -96z" />
<glyph unicode="&#xe1;" d="M66 260q0 97 34 155t91.5 89.5t134 41.5t162.5 12l122 3v137q0 83 -34 126.5t-105 43.5q-55 0 -100.5 -15.5t-87.5 -36.5l-38 -117h-66v227q46 7 87.5 13t84.5 11t90.5 8t104.5 3q77 0 142 -13t112 -43.5t73 -80.5t26 -123v-611l94 -24v-66h-346l-22 72 q-19 -13 -44.5 -29t-58.5 -30t-74 -23.5t-91 -9.5q-82 0 -137.5 21t-89.5 58.5t-49 89t-15 111.5zM354 266q0 -85 30 -125t78 -40t82 10.5t66 24.5v336l-84 -3q-44 -2 -76 -12t-53.5 -33.5t-32 -61.5t-10.5 -96zM363 1118v33l166 272h285v-37l-365 -268h-86z" />
<glyph unicode="&#xe2;" d="M66 260q0 97 34 155t91.5 89.5t134 41.5t162.5 12l122 3v137q0 83 -34 126.5t-105 43.5q-55 0 -100.5 -15.5t-87.5 -36.5l-38 -117h-66v227q46 7 87.5 13t84.5 11t90.5 8t104.5 3q77 0 142 -13t112 -43.5t73 -80.5t26 -123v-611l94 -24v-66h-346l-22 72 q-19 -13 -44.5 -29t-58.5 -30t-74 -23.5t-91 -9.5q-82 0 -137.5 21t-89.5 58.5t-49 89t-15 111.5zM186 1118v33l218 293h213l217 -293v-33h-76l-248 162l-248 -162h-76zM354 266q0 -85 30 -125t78 -40t82 10.5t66 24.5v336l-84 -3q-44 -2 -76 -12t-53.5 -33.5t-32 -61.5 t-10.5 -96z" />
<glyph unicode="&#xe3;" d="M66 260q0 97 34 155t91.5 89.5t134 41.5t162.5 12l122 3v137q0 83 -34 126.5t-105 43.5q-55 0 -100.5 -15.5t-87.5 -36.5l-38 -117h-66v227q46 7 87.5 13t84.5 11t90.5 8t104.5 3q77 0 142 -13t112 -43.5t73 -80.5t26 -123v-611l94 -24v-66h-346l-22 72 q-19 -13 -44.5 -29t-58.5 -30t-74 -23.5t-91 -9.5q-82 0 -137.5 21t-89.5 58.5t-49 89t-15 111.5zM170 1140q4 56 15 108t35 91.5t63.5 63.5t101.5 24q53 0 95 -21.5t77 -46.5q11 -8 25.5 -18.5t30 -20.5t31 -17t28.5 -7q18 0 29.5 6t19 19.5t11.5 35t9 51.5h105 q-4 -56 -15 -107.5t-35 -91.5t-64 -63.5t-101 -23.5q-26 0 -49.5 6.5t-45 16t-40.5 22t-37 24.5q-11 8 -25 19t-29.5 21t-31 17t-29.5 7q-19 0 -30.5 -6t-18.5 -20t-11.5 -36t-8.5 -53h-105zM354 266q0 -85 30 -125t78 -40t82 10.5t66 24.5v336l-84 -3q-44 -2 -76 -12 t-53.5 -33.5t-32 -61.5t-10.5 -96z" />
<glyph unicode="&#xe4;" d="M66 260q0 97 34 155t91.5 89.5t134 41.5t162.5 12l122 3v137q0 83 -34 126.5t-105 43.5q-55 0 -100.5 -15.5t-87.5 -36.5l-38 -117h-66v227q46 7 87.5 13t84.5 11t90.5 8t104.5 3q77 0 142 -13t112 -43.5t73 -80.5t26 -123v-611l94 -24v-66h-346l-22 72 q-19 -13 -44.5 -29t-58.5 -30t-74 -23.5t-91 -9.5q-82 0 -137.5 21t-89.5 58.5t-49 89t-15 111.5zM225 1251q0 25 10 46.5t26.5 37.5t38.5 25.5t46 9.5q25 0 46.5 -9.5t37.5 -25.5t25.5 -37.5t9.5 -46.5q0 -24 -9 -46t-25 -38.5t-38 -26.5t-47 -10q-24 0 -46 10t-38.5 26.5 t-26.5 38.5t-10 46zM354 266q0 -85 30 -125t78 -40t82 10.5t66 24.5v336l-84 -3q-44 -2 -76 -12t-53.5 -33.5t-32 -61.5t-10.5 -96zM561 1251q0 25 9.5 46.5t26 37.5t38.5 25.5t47 9.5t47 -9.5t38 -25.5t25 -37.5t9 -46.5q0 -24 -9 -46t-25 -38.5t-38 -26.5t-47 -10t-47 10 t-38.5 26.5t-26 38.5t-9.5 46z" />
<glyph unicode="&#xe5;" d="M66 260q0 97 34 155t91.5 89.5t134 41.5t162.5 12l122 3v137q0 83 -34 126.5t-105 43.5q-55 0 -100.5 -15.5t-87.5 -36.5l-38 -117h-66v227q46 7 87.5 13t84.5 11t90.5 8t104.5 3q77 0 142 -13t112 -43.5t73 -80.5t26 -123v-611l94 -24v-66h-346l-22 72 q-19 -13 -44.5 -29t-58.5 -30t-74 -23.5t-91 -9.5q-82 0 -137.5 21t-89.5 58.5t-49 89t-15 111.5zM307 1272q0 44 16 82.5t44.5 67t67 45t83.5 16.5t83.5 -16.5t67 -45t44.5 -67t16 -82.5t-16 -82.5t-44.5 -67.5t-67 -46t-83.5 -17t-83.5 17t-67 46t-44.5 67.5t-16 82.5z M354 266q0 -85 30 -125t78 -40t82 10.5t66 24.5v336l-84 -3q-44 -2 -76 -12t-53.5 -33.5t-32 -61.5t-10.5 -96zM420 1272q0 -20 8 -37.5t21.5 -31t31 -21.5t37.5 -8t37.5 8t31 21.5t21.5 31t8 37.5t-8 38t-21.5 31.5t-31 21.5t-37.5 8t-37.5 -8t-31 -21.5t-21.5 -31.5 t-8 -38z" />
<glyph unicode="&#xe6;" horiz-adv-x="1479" d="M66 260q0 65 17 112t47.5 79.5t72 52.5t90 31.5t102 16t108.5 6.5l99 3v135q0 38 -6.5 69.5t-22.5 54.5t-43 35.5t-67 12.5q-47 0 -94.5 -14.5t-85.5 -36.5l-39 -118h-65v226q34 7 74.5 13.5t84 11.5t88.5 8t88 3q75 0 133.5 -16t98.5 -54q45 36 105 55t137 19 q84 0 159 -20.5t131.5 -69t89.5 -129.5t33 -202v-82h-523v-53q1 -56 10 -110.5t37.5 -97.5t81.5 -69.5t142 -26.5q25 0 53 2.5t56 6.5t54 9t48 11v-77q-21 -14 -52.5 -28t-69.5 -24.5t-81 -17t-87 -6.5q-136 0 -221.5 31.5t-138.5 92.5q-29 -23 -64.5 -45.5t-80 -40 t-97 -28.5t-113.5 -11q-83 0 -138.5 21t-89 58.5t-47.5 89t-14 111.5zM354 266q0 -85 32 -125t80 -40q56 0 103 18.5t92 44.5q-8 10 -18.5 31.5t-19.5 54t-15 75t-6 95.5v52l-74 -3q-40 -2 -72.5 -10.5t-55 -30.5t-34.5 -61t-12 -101zM879 567h228q0 79 -5 135.5t-17 91.5 t-32 51.5t-49 16.5q-38 0 -62.5 -21t-38.5 -59t-19 -93t-5 -122z" />
<glyph unicode="&#xe7;" horiz-adv-x="909" d="M70 472q0 129 37 222.5t100.5 153.5t147.5 88.5t177 28.5q86 0 162.5 -10.5t142.5 -24.5v-278h-72l-42 165q-16 12 -31.5 20.5t-33.5 14t-39.5 8t-49.5 2.5q-39 0 -76 -22.5t-66.5 -69t-47.5 -119.5t-18 -173q0 -84 11.5 -153t40.5 -118t80 -75.5t129 -26.5q65 0 128.5 8 t107.5 21v-77q-24 -19 -56.5 -33t-71 -23.5t-79.5 -14.5t-81 -5q-134 0 -229 33.5t-155 96.5t-88 154t-28 207zM280 -301q34 -9 72 -14t63 -5q51 0 71.5 25t20.5 61q0 44 -31 67.5t-100 28.5l51 195h111l-23 -110q41 -6 75 -18t58.5 -32.5t38 -49.5t13.5 -68 q0 -50 -20 -87.5t-55 -62.5t-82.5 -38t-102.5 -13q-38 0 -82 8t-78 23v90z" />
<glyph unicode="&#xe8;" horiz-adv-x="909" d="M70 475q0 246 105.5 367t318.5 121q83 0 150 -20t114 -68.5t72.5 -129t25.5 -201.5v-82h-493v-16q0 -67 5.5 -128.5t30 -109t75 -75.5t139.5 -28q59 0 115 9t107 20v-77q-23 -14 -58 -28t-76.5 -24.5t-87.5 -17t-91 -6.5q-121 0 -207 32t-140.5 95t-79.5 155t-25 212z M207 1386v37h285l165 -273v-32h-86zM364 567h218q0 67 -2.5 122t-12 93t-29.5 59t-55 21q-36 0 -59 -21t-36.5 -59t-18.5 -93t-5 -122z" />
<glyph unicode="&#xe9;" horiz-adv-x="909" d="M70 475q0 246 105.5 367t318.5 121q83 0 150 -20t114 -68.5t72.5 -129t25.5 -201.5v-82h-493v-16q0 -67 5.5 -128.5t30 -109t75 -75.5t139.5 -28q59 0 115 9t107 20v-77q-23 -14 -58 -28t-76.5 -24.5t-87.5 -17t-91 -6.5q-121 0 -207 32t-140.5 95t-79.5 155t-25 212z M358 1118v33l166 272h285v-37l-365 -268h-86zM364 567h218q0 67 -2.5 122t-12 93t-29.5 59t-55 21q-36 0 -59 -21t-36.5 -59t-18.5 -93t-5 -122z" />
<glyph unicode="&#xea;" horiz-adv-x="909" d="M70 475q0 246 105.5 367t318.5 121q83 0 150 -20t114 -68.5t72.5 -129t25.5 -201.5v-82h-493v-16q0 -67 5.5 -128.5t30 -109t75 -75.5t139.5 -28q59 0 115 9t107 20v-77q-23 -14 -58 -28t-76.5 -24.5t-87.5 -17t-91 -6.5q-121 0 -207 32t-140.5 95t-79.5 155t-25 212z M154 1118v33l218 293h213l217 -293v-33h-76l-248 162l-248 -162h-76zM364 567h218q0 67 -2.5 122t-12 93t-29.5 59t-55 21q-36 0 -59 -21t-36.5 -59t-18.5 -93t-5 -122z" />
<glyph unicode="&#xeb;" horiz-adv-x="909" d="M70 475q0 246 105.5 367t318.5 121q83 0 150 -20t114 -68.5t72.5 -129t25.5 -201.5v-82h-493v-16q0 -67 5.5 -128.5t30 -109t75 -75.5t139.5 -28q59 0 115 9t107 20v-77q-23 -14 -58 -28t-76.5 -24.5t-87.5 -17t-91 -6.5q-121 0 -207 32t-140.5 95t-79.5 155t-25 212z M185 1251q0 25 10 46.5t26.5 37.5t38.5 25.5t46 9.5q25 0 46.5 -9.5t37.5 -25.5t25.5 -37.5t9.5 -46.5q0 -24 -9 -46t-25 -38.5t-38 -26.5t-47 -10q-24 0 -46 10t-38.5 26.5t-26.5 38.5t-10 46zM364 567h218q0 67 -2.5 122t-12 93t-29.5 59t-55 21q-36 0 -59 -21t-36.5 -59 t-18.5 -93t-5 -122zM521 1251q0 25 9.5 46.5t26 37.5t38.5 25.5t47 9.5t47 -9.5t38 -25.5t25 -37.5t9 -46.5q0 -24 -9 -46t-25 -38.5t-38 -26.5t-47 -10t-47 10t-38.5 26.5t-26 38.5t-9.5 46z" />
<glyph unicode="&#xec;" horiz-adv-x="569" d="M-12 1386v37h285l165 -273v-32h-86zM45 0v66l102 24v760l-96 24v66h385v-850l103 -24v-66h-494z" />
<glyph unicode="&#xed;" horiz-adv-x="569" d="M45 0v66l102 24v760l-96 24v66h385v-850l103 -24v-66h-494zM143 1118v33l166 272h285v-37l-365 -268h-86z" />
<glyph unicode="&#xee;" horiz-adv-x="569" d="M-36 1118v33l218 293h213l217 -293v-33h-76l-248 162l-248 -162h-76zM45 0v66l102 24v760l-96 24v66h385v-850l103 -24v-66h-494z" />
<glyph unicode="&#xef;" horiz-adv-x="569" d="M3 1251q0 25 10 46.5t26.5 37.5t38.5 25.5t46 9.5q25 0 46.5 -9.5t37.5 -25.5t25.5 -37.5t9.5 -46.5q0 -24 -9 -46t-25 -38.5t-38 -26.5t-47 -10q-24 0 -46 10t-38.5 26.5t-26.5 38.5t-10 46zM45 0v66l102 24v760l-96 24v66h385v-850l103 -24v-66h-494zM339 1251 q0 25 9.5 46.5t26 37.5t38.5 25.5t47 9.5t47 -9.5t38 -25.5t25 -37.5t9 -46.5q0 -24 -9 -46t-25 -38.5t-38 -26.5t-47 -10t-47 10t-38.5 26.5t-26 38.5t-9.5 46z" />
<glyph unicode="&#xf0;" d="M78 444q0 223 108 341t328 118q29 0 54.5 -1.5t48.5 -6.5q-14 59 -46 122.5t-87 121.5l-255 -148v126l173 100q-39 29 -84.5 54t-99.5 42v108q88 -20 166 -51.5t150 -75.5l285 165v-124l-191 -111q71 -59 129 -134t99.5 -167.5t64.5 -203t25 -240.5v-35q0 -224 -107 -344 t-333 -120q-212 0 -320 119t-108 345zM371 445q0 -86 6 -153.5t21.5 -114.5t42 -72t67.5 -25t68.5 25t44.5 72t24.5 114.5t7.5 153.5q0 85 -7.5 152t-24.5 113t-44.5 70t-68.5 24t-67.5 -24t-42 -70t-21.5 -113t-6 -152z" />
<glyph unicode="&#xf1;" horiz-adv-x="1139" d="M55 0v66l92 24v760l-92 24v66h365l14 -82q31 16 68 35t78 35t85 26.5t89 10.5q57 0 105 -15t82.5 -48t53.5 -86t19 -128v-598l94 -24v-66h-467v66l84 24v559q0 84 -35.5 131t-101.5 47q-76 0 -152 -34v-703l86 -24v-66h-467zM246 1140q4 56 15 108t35 91.5t63.5 63.5 t101.5 24q53 0 95 -21.5t77 -46.5q11 -8 25.5 -18.5t30 -20.5t31 -17t28.5 -7q18 0 29.5 6t19 19.5t11.5 35t9 51.5h105q-4 -56 -15 -107.5t-35 -91.5t-64 -63.5t-101 -23.5q-26 0 -49.5 6.5t-45 16t-40.5 22t-37 24.5q-11 8 -25 19t-29.5 21t-31 17t-29.5 7q-19 0 -30.5 -6 t-18.5 -20t-11.5 -36t-8.5 -53h-105z" />
<glyph unicode="&#xf2;" d="M78 475q0 119 25 210.5t78 153.5t135.5 94t197.5 32q223 0 327.5 -124.5t104.5 -365.5q0 -120 -24.5 -212t-77.5 -155t-136.5 -95.5t-201.5 -32.5q-111 0 -192 32t-133.5 95t-77.5 155.5t-25 212.5zM227 1386v37h285l165 -273v-32h-86zM371 475q0 -98 5 -171.5 t19.5 -123.5t41.5 -75t71 -25q45 0 73 25t44 75t22 123.5t6 171.5q0 97 -6 170t-22 122t-44 73t-73 24q-44 0 -71 -24t-41.5 -73t-19.5 -122t-5 -170z" />
<glyph unicode="&#xf3;" d="M78 475q0 119 25 210.5t78 153.5t135.5 94t197.5 32q223 0 327.5 -124.5t104.5 -365.5q0 -120 -24.5 -212t-77.5 -155t-136.5 -95.5t-201.5 -32.5q-111 0 -192 32t-133.5 95t-77.5 155.5t-25 212.5zM371 475q0 -98 5 -171.5t19.5 -123.5t41.5 -75t71 -25q45 0 73 25 t44 75t22 123.5t6 171.5q0 97 -6 170t-22 122t-44 73t-73 24q-44 0 -71 -24t-41.5 -73t-19.5 -122t-5 -170zM375 1118v33l166 272h285v-37l-365 -268h-86z" />
<glyph unicode="&#xf4;" d="M78 475q0 119 25 210.5t78 153.5t135.5 94t197.5 32q223 0 327.5 -124.5t104.5 -365.5q0 -120 -24.5 -212t-77.5 -155t-136.5 -95.5t-201.5 -32.5q-111 0 -192 32t-133.5 95t-77.5 155.5t-25 212.5zM186 1118v33l218 293h213l217 -293v-33h-76l-248 162l-248 -162h-76z M371 475q0 -98 5 -171.5t19.5 -123.5t41.5 -75t71 -25q45 0 73 25t44 75t22 123.5t6 171.5q0 97 -6 170t-22 122t-44 73t-73 24q-44 0 -71 -24t-41.5 -73t-19.5 -122t-5 -170z" />
<glyph unicode="&#xf5;" d="M78 475q0 119 25 210.5t78 153.5t135.5 94t197.5 32q223 0 327.5 -124.5t104.5 -365.5q0 -120 -24.5 -212t-77.5 -155t-136.5 -95.5t-201.5 -32.5q-111 0 -192 32t-133.5 95t-77.5 155.5t-25 212.5zM168 1140q4 56 15 108t35 91.5t63.5 63.5t101.5 24q53 0 95 -21.5 t77 -46.5q11 -8 25.5 -18.5t30 -20.5t31 -17t28.5 -7q18 0 29.5 6t19 19.5t11.5 35t9 51.5h105q-4 -56 -15 -107.5t-35 -91.5t-64 -63.5t-101 -23.5q-26 0 -49.5 6.5t-45 16t-40.5 22t-37 24.5q-11 8 -25 19t-29.5 21t-31 17t-29.5 7q-19 0 -30.5 -6t-18.5 -20t-11.5 -36 t-8.5 -53h-105zM371 475q0 -98 5 -171.5t19.5 -123.5t41.5 -75t71 -25q45 0 73 25t44 75t22 123.5t6 171.5q0 97 -6 170t-22 122t-44 73t-73 24q-44 0 -71 -24t-41.5 -73t-19.5 -122t-5 -170z" />
<glyph unicode="&#xf6;" d="M78 475q0 119 25 210.5t78 153.5t135.5 94t197.5 32q223 0 327.5 -124.5t104.5 -365.5q0 -120 -24.5 -212t-77.5 -155t-136.5 -95.5t-201.5 -32.5q-111 0 -192 32t-133.5 95t-77.5 155.5t-25 212.5zM223 1251q0 25 10 46.5t26.5 37.5t38.5 25.5t46 9.5q25 0 46.5 -9.5 t37.5 -25.5t25.5 -37.5t9.5 -46.5q0 -24 -9 -46t-25 -38.5t-38 -26.5t-47 -10q-24 0 -46 10t-38.5 26.5t-26.5 38.5t-10 46zM371 475q0 -98 5 -171.5t19.5 -123.5t41.5 -75t71 -25q45 0 73 25t44 75t22 123.5t6 171.5q0 97 -6 170t-22 122t-44 73t-73 24q-44 0 -71 -24 t-41.5 -73t-19.5 -122t-5 -170zM559 1251q0 25 9.5 46.5t26 37.5t38.5 25.5t47 9.5t47 -9.5t38 -25.5t25 -37.5t9 -46.5q0 -24 -9 -46t-25 -38.5t-38 -26.5t-47 -10t-47 10t-38.5 26.5t-26 38.5t-9.5 46z" />
<glyph unicode="&#xf7;" horiz-adv-x="1124" d="M86 608v143h952v-143h-952zM427 317q0 28 10.5 52.5t28.5 42.5t42.5 28.5t52.5 10.5t52.5 -10.5t42.5 -28.5t28.5 -42.5t10.5 -52.5t-10.5 -52.5t-28.5 -42.5t-42.5 -28.5t-52.5 -10.5t-52.5 10.5t-42.5 28.5t-28.5 42.5t-10.5 52.5zM427 1043q0 28 10.5 52.5t28.5 42.5 t42.5 28.5t52.5 10.5t52.5 -10.5t42.5 -28.5t28.5 -42.5t10.5 -52.5t-10.5 -52.5t-28.5 -42.5t-42.5 -28.5t-52.5 -10.5t-52.5 10.5t-42.5 28.5t-28.5 42.5t-10.5 52.5z" />
<glyph unicode="&#xf8;" d="M70 -84l122 178q-59 63 -86.5 158t-27.5 223q0 119 25 210.5t78 153.5t135.5 94t197.5 32q144 0 239 -53l75 110h124l-118 -173q57 -62 84.5 -155.5t27.5 -218.5q0 -120 -24.5 -212t-77.5 -155t-136.5 -95.5t-201.5 -32.5q-137 0 -231 50l-77 -114h-128zM371 414 q0 -29 2 -56l260 380q-15 63 -44.5 94.5t-80.5 31.5q-44 0 -71 -24t-41.5 -73t-19.5 -122t-5 -170v-61zM390 199q14 -60 42 -89.5t76 -29.5q45 0 73 25t44 75t22 123.5t6 171.5q0 29 -0.5 55t-1.5 51z" />
<glyph unicode="&#xf9;" horiz-adv-x="1139" d="M31 874v66h383v-649q0 -84 35.5 -131t101.5 -47q76 0 152 34v703l-86 24v66h375v-850l92 -24v-66h-365l-14 82q-31 -16 -68 -35t-78 -35t-85 -26.5t-89 -10.5q-57 0 -105 15t-82.5 48t-53.5 86t-19 128v598zM267 1386v37h285l165 -273v-32h-86z" />
<glyph unicode="&#xfa;" horiz-adv-x="1139" d="M31 874v66h383v-649q0 -84 35.5 -131t101.5 -47q76 0 152 34v703l-86 24v66h375v-850l92 -24v-66h-365l-14 82q-31 -16 -68 -35t-78 -35t-85 -26.5t-89 -10.5q-57 0 -105 15t-82.5 48t-53.5 86t-19 128v598zM416 1118v33l166 272h285v-37l-365 -268h-86z" />
<glyph unicode="&#xfb;" horiz-adv-x="1139" d="M31 874v66h383v-649q0 -84 35.5 -131t101.5 -47q76 0 152 34v703l-86 24v66h375v-850l92 -24v-66h-365l-14 82q-31 -16 -68 -35t-78 -35t-85 -26.5t-89 -10.5q-57 0 -105 15t-82.5 48t-53.5 86t-19 128v598zM239 1118v33l218 293h213l217 -293v-33h-76l-248 162 l-248 -162h-76z" />
<glyph unicode="&#xfc;" horiz-adv-x="1139" d="M31 874v66h383v-649q0 -84 35.5 -131t101.5 -47q76 0 152 34v703l-86 24v66h375v-850l92 -24v-66h-365l-14 82q-31 -16 -68 -35t-78 -35t-85 -26.5t-89 -10.5q-57 0 -105 15t-82.5 48t-53.5 86t-19 128v598zM278 1251q0 25 10 46.5t26.5 37.5t38.5 25.5t46 9.5 q25 0 46.5 -9.5t37.5 -25.5t25.5 -37.5t9.5 -46.5q0 -24 -9 -46t-25 -38.5t-38 -26.5t-47 -10q-24 0 -46 10t-38.5 26.5t-26.5 38.5t-10 46zM614 1251q0 25 9.5 46.5t26 37.5t38.5 25.5t47 9.5t47 -9.5t38 -25.5t25 -37.5t9 -46.5q0 -24 -9 -46t-25 -38.5t-38 -26.5t-47 -10 t-47 10t-38.5 26.5t-26 38.5t-9.5 46z" />
<glyph unicode="&#xfd;" d="M20 874v66h481v-66l-112 -26l221 -520l197 522l-110 24v66h307v-66l-68 -20l-371 -913q-32 -82 -65 -152t-73.5 -121.5t-92.5 -80.5t-121 -29q-28 0 -48.5 1t-39 3.5t-37 6t-40.5 8.5v242h60l43 -126q14 -11 31.5 -17t42.5 -6q41 0 71.5 21t55.5 56.5t46.5 83t45.5 100.5 l18 40l-376 879zM412 1118v33l166 272h285v-37l-365 -268h-86z" />
<glyph unicode="&#xfe;" horiz-adv-x="1139" d="M14 1356v65h404v-345q0 -36 -2 -86.5t-7 -97.5q22 15 47 28.5t54.5 23t65.5 15.5t82 6q208 0 312.5 -119.5t104.5 -367.5q0 -114 -26 -206t-79 -157t-134.5 -100t-192.5 -35q-54 0 -114.5 6.5t-116.5 20.5q1 -11 2.5 -30t2 -40.5t1 -42t0.5 -35.5v-205l138 -24v-66h-529 v66l102 24v1679zM418 103q81 -21 169 -21q90 0 142.5 98.5t52.5 289.5q0 109 -16 183t-42.5 118.5t-60 63.5t-68.5 19q-57 0 -98 -12t-79 -31v-708z" />
<glyph unicode="&#xff;" d="M20 874v66h481v-66l-112 -26l221 -520l197 522l-110 24v66h307v-66l-68 -20l-371 -913q-32 -82 -65 -152t-73.5 -121.5t-92.5 -80.5t-121 -29q-28 0 -48.5 1t-39 3.5t-37 6t-40.5 8.5v242h60l43 -126q14 -11 31.5 -17t42.5 -6q41 0 71.5 21t55.5 56.5t46.5 83t45.5 100.5 l18 40l-376 879zM250 1251q0 25 10 46.5t26.5 37.5t38.5 25.5t46 9.5q25 0 46.5 -9.5t37.5 -25.5t25.5 -37.5t9.5 -46.5q0 -24 -9 -46t-25 -38.5t-38 -26.5t-47 -10q-24 0 -46 10t-38.5 26.5t-26.5 38.5t-10 46zM586 1251q0 25 9.5 46.5t26 37.5t38.5 25.5t47 9.5t47 -9.5 t38 -25.5t25 -37.5t9 -46.5q0 -24 -9 -46t-25 -38.5t-38 -26.5t-47 -10t-47 10t-38.5 26.5t-26 38.5t-9.5 46z" />
<glyph unicode="&#x152;" horiz-adv-x="2048" d="M113 675q0 178 46 305.5t135 209.5t218.5 120.5t297.5 38.5q38 0 89 -2t107 -6h853v-341h-91l-32 217q-32 4 -79.5 7t-97 4.5t-93 2t-66.5 0.5h-108v-492h263l31 148h89v-412h-89l-31 152h-263v-517h153q62 0 119 1.5t103 3.5t79.5 5t48.5 6l57 248h91l-19 -374h-935 q-51 -3 -97.5 -5t-81.5 -2q-162 0 -291 40t-219.5 123t-138.5 212t-48 307zM445 675q0 -140 17 -248.5t59 -182.5t112.5 -112.5t176.5 -38.5q19 0 42 1t45.5 3t43.5 6t36 9v1117q-16 5 -36.5 8.5t-43 6t-45.5 3.5t-42 1q-106 0 -176.5 -37t-112.5 -110t-59 -180t-17 -246z " />
<glyph unicode="&#x153;" horiz-adv-x="1479" d="M48 475q0 119 24 210.5t76 153.5t134 94t197 32q101 0 170 -32.5t114 -89.5q45 56 114 88t169 32q85 0 156 -20t122 -68.5t79.5 -129t28.5 -201.5v-82h-523v-16q0 -67 6.5 -128.5t33.5 -109t80 -75.5t146 -28q61 0 112.5 9t105.5 20v-77q-47 -29 -112 -52.5t-157 -23.5 q-126 0 -211.5 36t-139.5 98q-45 -63 -117.5 -99t-184.5 -36q-111 0 -191 32t-131.5 95t-76 155.5t-24.5 212.5zM341 475q0 -98 4 -171.5t18 -123.5t40 -75t70 -25q45 0 72.5 25t42.5 75t20 123.5t5 171.5q0 97 -5 170t-20 122t-42.5 73t-72.5 24q-44 0 -70 -24t-40 -73 t-18 -122t-4 -170zM910 567h228q0 67 -2 122t-11.5 93t-30.5 59t-59 21q-39 0 -63.5 -21t-38 -59t-18.5 -93t-5 -122z" />
<glyph unicode="&#x178;" horiz-adv-x="1479" d="M36 1268v73h690v-73l-180 -26l306 -562l296 562l-164 26v73h456v-73l-142 -26l-387 -714v-428l213 -27v-73h-742v73l213 27v422l-408 720zM493 1585q0 25 10 46.5t26.5 37.5t38.5 25.5t46 9.5q25 0 46.5 -9.5t37.5 -25.5t25.5 -37.5t9.5 -46.5q0 -24 -9 -46t-25 -38.5 t-38 -26.5t-47 -10q-24 0 -46 10t-38.5 26.5t-26.5 38.5t-10 46zM829 1585q0 25 9.5 46.5t26 37.5t38.5 25.5t47 9.5t47 -9.5t38 -25.5t25 -37.5t9 -46.5q0 -24 -9 -46t-25 -38.5t-38 -26.5t-47 -10t-47 10t-38.5 26.5t-26 38.5t-9.5 46z" />
<glyph unicode="&#x2c6;" horiz-adv-x="682" d="M18 1118v33l218 293h213l217 -293v-33h-76l-248 162l-248 -162h-76z" />
<glyph unicode="&#x2dc;" horiz-adv-x="682" d="M4 1138q4 56 15 108t35 91.5t63.5 63.5t101.5 24q53 0 95 -21.5t77 -46.5q11 -8 25.5 -18.5t30 -20.5t31 -17t28.5 -7q18 0 29.5 6t19 19.5t11.5 35t9 51.5h105q-4 -56 -15 -107.5t-35 -91.5t-64 -63.5t-101 -23.5q-26 0 -49.5 6.5t-45 16t-40.5 22t-37 24.5 q-11 8 -25 19t-29.5 21t-31 17t-29.5 7q-19 0 -30.5 -6t-18.5 -20t-11.5 -36t-8.5 -53h-105z" />
<glyph unicode="&#x2000;" horiz-adv-x="889" />
<glyph unicode="&#x2001;" horiz-adv-x="1778" />
<glyph unicode="&#x2002;" horiz-adv-x="889" />
<glyph unicode="&#x2003;" horiz-adv-x="1778" />
<glyph unicode="&#x2004;" horiz-adv-x="592" />
<glyph unicode="&#x2005;" horiz-adv-x="444" />
<glyph unicode="&#x2006;" horiz-adv-x="296" />
<glyph unicode="&#x2007;" horiz-adv-x="296" />
<glyph unicode="&#x2008;" horiz-adv-x="222" />
<glyph unicode="&#x2009;" horiz-adv-x="355" />
<glyph unicode="&#x200a;" horiz-adv-x="98" />
<glyph unicode="&#x2010;" horiz-adv-x="682" d="M75 395v174h532v-174h-532z" />
<glyph unicode="&#x2011;" horiz-adv-x="682" d="M75 395v174h532v-174h-532z" />
<glyph unicode="&#x2012;" horiz-adv-x="682" d="M75 395v174h532v-174h-532z" />
<glyph unicode="&#x2013;" d="M-14 406v143h1052v-143h-1052z" />
<glyph unicode="&#x2014;" horiz-adv-x="2048" d="M-14 406v143h2076v-143h-2076z" />
<glyph unicode="&#x2018;" horiz-adv-x="682" d="M161 936q0 71 23 135.5t72 119.5t126.5 98.5t186.5 72.5v-92q-57 -17 -96 -41.5t-62.5 -51.5t-34 -53t-10.5 -45q0 -21 11.5 -34t28.5 -23.5t37 -21t37 -26t28.5 -38.5t11.5 -59q0 -32 -12.5 -57t-34 -42t-51.5 -26t-64 -9q-37 0 -72.5 12.5t-63 37t-44.5 60.5t-17 83z " />
<glyph unicode="&#x2019;" horiz-adv-x="682" d="M127 743v93q57 17 96 41.5t62.5 51t34 52.5t10.5 45q0 21 -11.5 34t-28 24t-36.5 21t-36.5 26t-28 39t-11.5 59q0 32 12 57t33.5 42t50.5 25.5t64 8.5q37 0 72.5 -12.5t63.5 -37.5t44.5 -61t16.5 -84q0 -71 -22.5 -135t-71.5 -118.5t-126.5 -98t-187.5 -72.5z" />
<glyph unicode="&#x201a;" horiz-adv-x="682" d="M117 -225q57 17 95.5 41.5t62 51t34 52.5t10.5 45q0 20 -11 33.5t-28 24t-36.5 21t-36.5 26.5t-28 39t-11 59q0 32 12 57t33.5 42t50.5 25.5t64 8.5q37 0 72.5 -12.5t63 -37.5t44 -61t16.5 -84q0 -71 -22.5 -135t-71 -118.5t-126 -97.5t-187.5 -72v92z" />
<glyph unicode="&#x201c;" d="M99 936q0 71 23 135.5t72 119.5t126.5 98.5t186.5 72.5v-92q-57 -17 -96 -41.5t-62.5 -51.5t-34 -53t-10.5 -45q0 -21 11.5 -34t28.5 -23.5t37 -21t37 -26t28.5 -38.5t11.5 -59q0 -32 -12.5 -57t-34 -42t-51.5 -26t-64 -9q-37 0 -72.5 12.5t-63 37t-44.5 60.5t-17 83z M549 936q0 71 23 135.5t72 119.5t126.5 98.5t186.5 72.5v-92q-57 -17 -96 -41.5t-62.5 -51.5t-34 -53t-10.5 -45q0 -21 11.5 -34t28.5 -23.5t37 -21t37 -26t28.5 -38.5t11.5 -59q0 -32 -12.5 -57t-34 -42t-51.5 -26t-64 -9q-37 0 -72.5 12.5t-63 37t-44.5 60.5t-17 83z" />
<glyph unicode="&#x201d;" d="M77 743v93q57 17 95.5 41.5t62 51t34 52.5t10.5 45q0 21 -11.5 34t-28.5 24t-36.5 21t-36.5 26t-28.5 39t-11.5 59q0 32 12 57t34 42t51.5 25.5t64.5 8.5q37 0 72 -12.5t62.5 -37.5t44.5 -61t17 -84q0 -71 -23 -135t-72 -118.5t-126 -98t-186 -72.5zM527 743v93 q57 17 95.5 41.5t62 51t34 52.5t10.5 45q0 21 -11.5 34t-28.5 24t-36.5 21t-36.5 26t-28.5 39t-11.5 59q0 32 12 57t34 42t51.5 25.5t64.5 8.5q37 0 72 -12.5t62 -37.5t43.5 -61t16.5 -84q0 -71 -22.5 -135t-71 -118.5t-125.5 -98t-186 -72.5z" />
<glyph unicode="&#x201e;" d="M59 -225q57 17 95.5 41.5t62 51t34 52.5t10.5 45q0 20 -11 33.5t-28 24t-36.5 21t-36.5 26.5t-28 39t-11 59q0 65 45 99t115 34q37 0 72.5 -12.5t63 -37.5t44 -61t16.5 -84q0 -71 -22.5 -135t-71.5 -118.5t-126.5 -97.5t-186.5 -72v92zM509 -225q57 17 95.5 41.5t62 51 t34 52.5t10.5 45q0 20 -11 33.5t-28 24t-36.5 21t-36.5 26.5t-28 39t-11 59q0 65 45 99t115 34q37 0 72.5 -12.5t63 -37.5t44 -61t16.5 -84q0 -71 -22.5 -135t-71 -118.5t-126 -97.5t-187.5 -72v92z" />
<glyph unicode="&#x2022;" horiz-adv-x="717" d="M81 678q0 57 21.5 107.5t59 88t88 59.5t108.5 22t108.5 -22t88 -59.5t59 -88t21.5 -107.5t-21.5 -107.5t-59 -88t-88 -59.5t-108.5 -22t-108.5 22t-88 59.5t-59 88t-21.5 107.5z" />
<glyph unicode="&#x2026;" horiz-adv-x="2048" d="M170 137q0 34 13 64.5t35.5 53t52.5 35.5t65 13q34 0 64.5 -13t53 -35.5t35.5 -53t13 -64.5q0 -35 -13 -65t-35.5 -52.5t-53 -35.5t-64.5 -13q-35 0 -65 13t-52.5 35.5t-35.5 52.5t-13 65zM860 137q0 34 13 64.5t35.5 53t52.5 35.5t65 13q34 0 64.5 -13t53 -35.5 t35.5 -53t13 -64.5q0 -35 -13 -65t-35.5 -52.5t-53 -35.5t-64.5 -13q-35 0 -65 13t-52.5 35.5t-35.5 52.5t-13 65zM1550 137q0 34 13 64.5t35.5 53t52.5 35.5t65 13q34 0 64.5 -13t53 -35.5t35.5 -53t13 -64.5q0 -35 -13 -65t-35.5 -52.5t-53 -35.5t-64.5 -13q-35 0 -65 13 t-52.5 35.5t-35.5 52.5t-13 65z" />
<glyph unicode="&#x202f;" horiz-adv-x="355" />
<glyph unicode="&#x2039;" horiz-adv-x="682" d="M126 429v66l330 356h100l-182 -389l182 -388h-100z" />
<glyph unicode="&#x203a;" horiz-adv-x="682" d="M126 74l182 389l-182 389h100l330 -356v-66l-330 -356h-100z" />
<glyph unicode="&#x205f;" horiz-adv-x="444" />
<glyph unicode="&#x20ac;" d="M26 493v101h110q-1 14 -1.5 33t-0.5 34v37.5t2 39.5h-110v101h118q31 265 160 391t349 126q52 0 94.5 -2t80.5 -6.5t74.5 -10.5t76.5 -14l4 -285h-89l-28 150q-40 31 -87.5 48t-100.5 17q-50 0 -91.5 -22t-73.5 -71.5t-53.5 -128t-29.5 -192.5h284v-101h-287 q-3 -30 -3 -71q0 -17 0.5 -39t2.5 -34h287v-101h-284q17 -208 85.5 -309t170.5 -101q70 0 119.5 24t78.5 56l28 165h89l-4 -298q-65 -20 -149 -35t-187 -15q-112 0 -201 34.5t-154 100t-106 161t-56 217.5h-118z" />
<glyph unicode="&#x2122;" horiz-adv-x="2048" d="M83 1112v231h742v-231h-71l-16 149q-11 2 -24.5 4.5t-32.5 4.5t-44 3t-60 1h-30v-660l128 -16v-60h-445v60l128 16v661h-31q-39 0 -64.5 -1.5t-42.5 -3.5t-28 -4.5t-22 -4.5l-16 -149h-71zM882 538v60l103 16v653l-103 16v60h335l214 -495l218 495h322v-60l-103 -16v-653 l103 -16v-60h-400v60l108 16v586l-293 -662h-33l-278 645v-569l103 -16v-60h-296z" />
<glyph unicode="&#x25fc;" horiz-adv-x="940" d="M0 0v940h940v-940h-940z" />
</font>
</defs>
</svg>
