<?xml version="1.0" encoding="utf-8"?>
<!-- Generator: Adobe Illustrator 13.0.0, SVG Export Plug-In . SVG Version: 6.00 Build 14948)  -->
<!DOCTYPE svg PUBLIC "-//W3C//DTD SVG 1.1//EN" "http://www.w3.org/Graphics/SVG/1.1/DTD/svg11.dtd">
<svg version="1.1" id="Layer_1" xmlns="http://www.w3.org/2000/svg" xmlns:xlink="http://www.w3.org/1999/xlink" x="0px" y="0px"
	 width="135.8px" height="90.2px" viewBox="0 0 135.8 90.2" enable-background="new 0 0 135.8 90.2" xml:space="preserve">
<g>
	<rect fill="#027BB5" width="45" height="45"/>
	<path fill="#FFFFFF" d="M7.7,17.4H14v20.4H7.7V17.4z M10.9,7.2c2,0,3.7,1.6,3.7,3.7c0,2-1.6,3.7-3.7,3.7c-2,0-3.7-1.6-3.7-3.7
		C7.2,8.9,8.8,7.2,10.9,7.2"/>
	<path fill="#FFFFFF" d="M18,17.4h6.1v2.8h0.1c0.8-1.6,2.9-3.3,6-3.3c6.4,0,7.6,4.2,7.6,9.7v11.2h-6.3v-9.9c0-2.4,0-5.4-3.3-5.4
		c-3.3,0-3.8,2.6-3.8,5.2v10.1H18V17.4z"/>
</g>
<g>
	<rect x="45.4" fill="#29A7DF" width="45" height="45"/>
	<path fill="#FFFFFF" d="M82.9,13.2c-1.1,0.5-2.3,0.8-3.5,1c1.3-0.8,2.2-2,2.7-3.4c-1.2,0.7-2.5,1.2-3.9,1.5
		c-1.1-1.2-2.7-1.9-4.5-1.9c-3.4,0-6.2,2.8-6.2,6.2c0,0.5,0.1,1,0.2,1.4c-5.1-0.3-9.6-2.7-12.7-6.4c-0.5,0.9-0.8,2-0.8,3.1
		c0,2.1,1.1,4,2.7,5.1c-1,0-2-0.3-2.8-0.8V19c0,3,2.1,5.5,4.9,6c-0.5,0.1-1.1,0.2-1.6,0.2c-0.4,0-0.8,0-1.2-0.1
		c0.8,2.4,3.1,4.2,5.7,4.3C59.9,31,57.3,32,54.4,32c-0.5,0-1,0-1.5-0.1c2.7,1.7,6,2.8,9.4,2.8c11.3,0,17.5-9.4,17.5-17.5
		c0-0.3,0-0.5,0-0.8C81.1,15.5,82.1,14.4,82.9,13.2z"/>
</g>
<g>
	<rect x="90.8" fill="#06378E" width="45" height="45"/>
	<path fill="#FFFFFF" d="M113.3,7.3c-8.6,0-15.6,7-15.6,15.6c0,6.9,4.5,12.8,10.7,14.8c0.8,0.1,1.1-0.3,1.1-0.8c0-0.4,0-1.4,0-2.7
		c-4.3,0.9-5.3-2.1-5.3-2.1c-0.7-1.8-1.7-2.3-1.7-2.3c-1.4-1,0.1-1,0.1-1c1.6,0.1,2.4,1.6,2.4,1.6c1.4,2.4,3.7,1.7,4.5,1.3
		c0.1-1,0.5-1.7,1-2.1c-3.5-0.4-7.1-1.7-7.1-7.7c0-1.7,0.6-3.1,1.6-4.2c-0.2-0.4-0.7-2,0.2-4.1c0,0,1.3-0.4,4.3,1.6
		c1.2-0.3,2.6-0.5,3.9-0.5c1.3,0,2.7,0.2,3.9,0.5c3-2,4.3-1.6,4.3-1.6c0.9,2.2,0.3,3.7,0.2,4.1c1,1.1,1.6,2.5,1.6,4.2
		c0,6-3.7,7.3-7.1,7.7c0.6,0.5,1.1,1.4,1.1,2.9c0,2.1,0,3.8,0,4.3c0,0.4,0.3,0.9,1.1,0.7c6.2-2.1,10.7-7.9,10.7-14.8
		C128.9,14.3,121.9,7.3,113.3,7.3"/>
</g>
<g>
	<rect y="45.2" fill="#5C98B5" width="45" height="45"/>
	<path fill="#FFFFFF" d="M7.7,62.5H14v20.4H7.7V62.5z M10.9,52.4c2,0,3.7,1.6,3.7,3.7c0,2-1.6,3.7-3.7,3.7c-2,0-3.7-1.6-3.7-3.7
		C7.2,54.1,8.8,52.4,10.9,52.4"/>
	<path fill="#FFFFFF" d="M18,62.5h6.1v2.8h0.1c0.8-1.6,2.9-3.3,6-3.3c6.4,0,7.6,4.2,7.6,9.7v11.2h-6.3V73c0-2.4,0-5.4-3.3-5.4
		c-3.3,0-3.8,2.6-3.8,5.2v10.1H18V62.5z"/>
</g>
<g>
	<rect x="45.4" y="45.2" fill="#84C3DF" width="45" height="45"/>
	<path fill="#FFFFFF" d="M82.9,58.4c-1.1,0.5-2.3,0.8-3.5,1c1.3-0.8,2.2-2,2.7-3.4c-1.2,0.7-2.5,1.2-3.9,1.5
		c-1.1-1.2-2.7-1.9-4.5-1.9c-3.4,0-6.2,2.8-6.2,6.2c0,0.5,0.1,1,0.2,1.4c-5.1-0.3-9.6-2.7-12.7-6.4c-0.5,0.9-0.8,2-0.8,3.1
		c0,2.1,1.1,4,2.7,5.1c-1,0-2-0.3-2.8-0.8v0.1c0,3,2.1,5.5,4.9,6c-0.5,0.1-1.1,0.2-1.6,0.2c-0.4,0-0.8,0-1.2-0.1
		c0.8,2.4,3.1,4.2,5.7,4.3c-2.1,1.7-4.8,2.6-7.6,2.6c-0.5,0-1,0-1.5-0.1c2.7,1.7,6,2.8,9.4,2.8c11.3,0,17.5-9.4,17.5-17.5
		c0-0.3,0-0.5,0-0.8C81.1,60.7,82.1,59.6,82.9,58.4z"/>
</g>
<g>
	<rect x="90.8" y="45.2" fill="#4A638E" width="45" height="45"/>
	<path fill="#FFFFFF" d="M113.3,52.4c-8.6,0-15.6,7-15.6,15.6c0,6.9,4.5,12.8,10.7,14.8c0.8,0.1,1.1-0.3,1.1-0.8c0-0.4,0-1.4,0-2.7
		c-4.3,0.9-5.3-2.1-5.3-2.1c-0.7-1.8-1.7-2.3-1.7-2.3c-1.4-1,0.1-1,0.1-1c1.6,0.1,2.4,1.6,2.4,1.6c1.4,2.4,3.7,1.7,4.5,1.3
		c0.1-1,0.5-1.7,1-2.1c-3.5-0.4-7.1-1.7-7.1-7.7c0-1.7,0.6-3.1,1.6-4.2c-0.2-0.4-0.7-2,0.2-4.1c0,0,1.3-0.4,4.3,1.6
		c1.2-0.3,2.6-0.5,3.9-0.5c1.3,0,2.7,0.2,3.9,0.5c3-2,4.3-1.6,4.3-1.6c0.9,2.2,0.3,3.7,0.2,4.1c1,1.1,1.6,2.5,1.6,4.2
		c0,6-3.7,7.3-7.1,7.7c0.6,0.5,1.1,1.4,1.1,2.9c0,2.1,0,3.8,0,4.3c0,0.4,0.3,0.9,1.1,0.8c6.2-2.1,10.7-7.9,10.7-14.8
		C128.9,59.4,121.9,52.4,113.3,52.4"/>
</g>
</svg>
