<?xml version="1.0" encoding="utf-8"?>
<!-- Generator: Adobe Illustrator 13.0.0, SVG Export Plug-In . SVG Version: 6.00 Build 14948)  -->
<!DOCTYPE svg PUBLIC "-//W3C//DTD SVG 1.1//EN" "http://www.w3.org/Graphics/SVG/1.1/DTD/svg11.dtd">
<svg version="1.1" id="Layer_1" xmlns="http://www.w3.org/2000/svg" xmlns:xlink="http://www.w3.org/1999/xlink" x="0px" y="0px"
	 width="199.5px" height="199.5px" viewBox="0 0 199.5 199.5" enable-background="new 0 0 199.5 199.5" xml:space="preserve">
<circle cx="101.5" cy="101.2" r="68.2"/>
<g>
	<g>
		<path fill="#D3D7CF" d="M99.8,0C44.7,0,0,44.7,0,99.8c0,55.1,44.7,99.8,99.8,99.8c55.1,0,99.8-44.7,99.8-99.8
			C199.5,44.7,154.8,0,99.8,0z M155,47.2c11.7,0,21.2,9.5,21.2,21.2s-9.5,21.2-21.2,21.2s-21.2-9.5-21.2-21.2S143.3,47.2,155,47.2z
			 M99.5,15c11.7,0,21.2,9.5,21.2,21.2c0,11.7-9.5,21.2-21.2,21.2S78.2,48,78.2,36.2C78.2,24.5,87.8,15,99.5,15z M44,153
			c-11.7,0-21.2-9.5-21.2-21.2s9.5-21.2,21.2-21.2s21.2,9.5,21.2,21.2S55.7,153,44,153z M44.2,89.2C32.5,89.2,23,79.7,23,68
			s9.5-21.2,21.2-21.2c11.7,0,21.2,9.5,21.2,21.2S56,89.2,44.2,89.2z M100,185.2c-11.7,0-21.2-9.5-21.2-21.2s9.5-21.2,21.2-21.2
			s21.2,9.5,21.2,21.2S111.7,185.2,100,185.2z M99.5,126c-14.4,0-26-11.6-26-26s11.6-26,26-26s26,11.6,26,26S113.9,126,99.5,126z
			 M154.8,153.2c-11.7,0-21.2-9.5-21.2-21.2s9.5-21.2,21.2-21.2S176,120.3,176,132S166.5,153.2,154.8,153.2z"/>
	</g>
</g>
<g>
	<g>
		<path fill="#B1B2B1" d="M187.5,95.8L128.8,92c0,0-5-11-7.2-13.8l25.8-52.5c0,0,0.8-3-1-4.2s-5.2,0.2-6.8,2S109,70.2,109,70.2
			s-13.8,0.2-16.2,1s-31-47.8-31-47.8s-3-3.8-6.8-2.8s-2.5,5.5-2.5,5.5L79,78.5c0,0-6.5,9.8-7.5,13.5l-56.8,3.5c0,0-5.5,0.8-5.2,4.2
			c0,0,0.8,4,5.8,4.2s56,3.2,56,3.2s5.5,11.8,7.8,13.5l-26.2,52c0,0-0.2,3.8,2.8,5.8c0,0,2.8,0.5,4.8-2.2s30.8-48,30.8-48
			s11.8,2,17.5,0.2l31,47.2c0,0,3.5,3.8,6,2.2c0,0,2-3.2,0.8-5.2l-25.5-51.2c0,0,8.2-11.8,8.8-13.2l58.2-4.5c0,0,3-1.5,3-4
			S189,96,187.5,95.8z M99.8,125.2c-14.1,0-25.5-11.4-25.5-25.5s11.4-25.5,25.5-25.5s25.5,11.4,25.5,25.5S113.8,125.2,99.8,125.2z"
			/>
	</g>
</g>
<g>
	<g>
		<path fill="#F4F4F4" d="M99.8,72.2c-15.2,0-27.5,12.3-27.5,27.5s12.3,27.5,27.5,27.5s27.5-12.3,27.5-27.5S114.9,72.2,99.8,72.2z
			 M108.2,79c3.5,0,6.2,2.8,6.2,6.2s-2.8,6.2-6.2,6.2s-6.2-2.8-6.2-6.2S104.8,79,108.2,79z M90.8,79c3.6,0,6.5,2.9,6.5,6.5
			S94.3,92,90.8,92s-6.5-2.9-6.5-6.5S87.2,79,90.8,79z M75.8,100c0-3.6,2.9-6.5,6.5-6.5s6.5,2.9,6.5,6.5s-2.9,6.5-6.5,6.5
			S75.8,103.6,75.8,100z M90.8,121.5c-3.6,0-6.5-2.9-6.5-6.5s2.9-6.5,6.5-6.5s6.5,2.9,6.5,6.5S94.3,121.5,90.8,121.5z M95.5,99.8
			c0-2.3,1.9-4.2,4.2-4.2s4.2,1.9,4.2,4.2s-1.9,4.2-4.2,4.2S95.5,102.1,95.5,99.8z M108.2,121.8c-3.6,0-6.5-2.9-6.5-6.5
			s2.9-6.5,6.5-6.5s6.5,2.9,6.5,6.5S111.8,121.8,108.2,121.8z M116.8,106.5c-3.5,0-6.2-2.8-6.2-6.2c0-3.5,2.8-6.2,6.2-6.2
			s6.2,2.8,6.2,6.2C123,103.7,120.2,106.5,116.8,106.5z"/>
	</g>
</g>
<circle fill="none" cx="99.8" cy="99.8" r="26"/>
</svg>
